<svg xmlns="http://www.w3.org/2000/svg" width="5763" height="2625" viewBox="0 0 5763 2625">
  <defs>
    <style>
      .cls-1 {
        fill: #ba0c2f;
        fill-rule: evenodd;
      }
    </style>
  </defs>
  <path class="cls-1" d="M11.656,2615.97h118.6V2599.5h-2.2c-27.453,0-32.944-19.77-32.944-64.24V2401.85H311.442v133.41c0,44.47-6.039,64.24-33.492,64.24h-2.2v16.47h118.6V2599.5h-2.2c-27.453,0-33.493-19.77-33.493-64.24V2309.07c0-44.47,6.04-64.23,33.493-64.23h2.2v-16.47h-118.6v16.47h2.2c27.453,0,33.492,19.76,33.492,64.23v76.31H95.113v-76.31c0-44.47,5.491-64.23,32.944-64.23h2.2v-16.47H11.656v16.47h2.2c27.453,0,33.493,19.76,33.493,64.23v226.19c0,44.47-6.04,64.24-33.493,64.24h-2.2v16.47Zm545.772-143.86,65.578-120.44,77.622,120.44h-143.2Zm-30.112,55.54,19.406-36.8H712.673l32.789,51.52c8.03,12.04,12.045,22.08,12.045,30.78,0,14.05-10.707,24.08-27.436,24.08h-3.346v18.74H867.249v-18.74c-18.067-3.34-36.135-16.05-49.518-37.47L641.073,2281.42l-134.5,246.23c-24.759,45.5-42.157,68.25-80.3,69.58v18.74h127.14v-18.74c-26.1-1.33-40.819-12.71-40.819-28.1C512.594,2558.43,517.948,2545.04,527.316,2527.65Zm374.307,69.58v18.74H1028.76v-18.74c-38.138-.66-54.2-22.08-54.2-68.91V2357.7L1119.1,2558.43l147.22-225.49v210.1c0,38.14-6.7,54.19-33.46,54.19h-1.34v18.74h122.46v-18.74h-1.34c-26.77,0-33.46-16.05-33.46-54.19V2360.37c0-38.14,6.69-54.19,33.46-54.19h1.34v-18.74h-80.3l-135.17,210.77L985.268,2287.44h-80.3v18.74c24.09,0.66,38.142,7.36,50.856,25.42v196.72C955.825,2575.82,939.765,2596.57,901.623,2597.23Zm518.917,18.74h221.49c96.36,0,147.88-42.15,147.88-106.39,0-38.81-24.76-71.59-69.59-84.97,35.46-9.37,56.21-35.47,56.21-64.91,0-46.83-38.14-72.26-115.1-72.26H1420.54v18.74h1.33c28.11,0,32.79,16.72,32.79,54.19v182.67c0,38.14-4.68,54.19-32.12,54.19h-2v18.74Zm218.14-182c56.88,0,86.99,32.12,86.99,72.94,0,58.88-36.13,90.32-107.73,90.32H1508.2V2433.97h130.48Zm10.71-127.79c37.47,0,62.9,23.41,62.9,53.52,0,32.12-26.1,54.87-79.63,54.87H1508.2V2306.18h141.19Zm402.08,291.05H1939.05V2360.37c0-38.14,6.69-54.19,32.79-54.19h1.33v-18.74H1851.39v18.74h3.34c24.76,0,30.78,16.05,30.78,54.19v182.67c0,38.14-6.69,54.19-32.78,54.19h-1.34v18.74h314.5v-80.29h-18.07C2129.76,2581.18,2101.65,2597.23,2051.47,2597.23Zm369.89,0H2311.62V2446.69h33.46c52.86,0,78.29,12.04,78.96,40.14h18.73v-98.36h-18.73c-1.34,28.78-26.1,40.15-78.96,40.15h-33.46V2306.18h109.74c49.52,0,78.29,15.38,96.36,58.88h18.74v-77.62h-312.5v18.74h3.34c25.43,0,30.79,16.72,30.79,54.19v182.67c0,38.14-6.03,54.19-32.79,54.19h-1.34v18.74h312.5v-80.29h-18.74C2499.65,2581.18,2471.55,2597.23,2421.36,2597.23Zm331.21-291.05v236.86c0,38.14-6.02,54.19-32.79,54.19h-1.33v18.74h121.78v-18.74h-1.34c-26.09,0-32.78-16.05-32.78-54.19V2306.18h30.11c49.52,0,77.62,15.38,95.69,58.88h18.73v-77.62H2608.7v77.62h18.74c18.07-43.5,46.17-58.88,95.69-58.88h29.44Zm446.11-24.76c-117.77,0-198.74,73.6-198.74,173.96,0,96.36,80.3,166.61,198.74,166.61s199.41-73.6,199.41-173.97C3398.09,2351.67,3317.13,2281.42,3198.68,2281.42Zm135.17,169.28c0,87.65-58.88,152.56-134.5,152.56-78.96,0-135.17-64.24-135.17-150.55,0-86.98,58.89-153.23,135.17-153.23C3278.31,2299.48,3333.85,2365.06,3333.85,2450.7Zm104.64,165.27h127.14v-18.74c-38.14,0-54.2-22.08-54.2-69.58V2351.01l276.36,279.68V2374.42c0-46.16,16.06-68.24,49.52-68.24H3842v-18.74H3714.86v18.74h4.68c33.46,0,50.19,22.08,50.19,68.24v163.93l-249.6-250.91h-77.62v18.74h4.01c13.39,0,22.75,3.34,32.79,12.71l13.39,12.71v196.05c0,46.83-16.06,69.58-52.87,69.58h-1.34v18.74Zm738.67,0h118.6V2599.5h-2.19c-27.46,0-32.95-19.77-32.95-64.24V2401.85h216.33v133.41c0,44.47-6.04,64.24-33.49,64.24h-2.2v16.47h118.6V2599.5h-2.2c-27.45,0-33.49-19.77-33.49-64.24V2309.07c0-44.47,6.04-64.23,33.49-64.23h2.2v-16.47h-118.6v16.47h2.2c27.45,0,33.49,19.76,33.49,64.23v76.31H4260.62v-76.31c0-44.47,5.49-64.23,32.95-64.23h2.19v-16.47h-118.6v16.47h2.2c27.45,0,33.49,19.76,33.49,64.23v226.19c0,44.47-6.04,64.24-33.49,64.24h-2.2v16.47Zm545.78-143.86,65.57-120.44,77.63,120.44h-143.2Zm-30.12,55.54,19.41-36.8h165.95l32.79,51.52c8.03,12.04,12.05,22.08,12.05,30.78,0,14.05-10.71,24.08-27.44,24.08h-3.35v18.74h140.53v-18.74c-18.07-3.34-36.14-16.05-49.52-37.47l-176.66-278.34-134.5,246.23c-24.76,45.5-42.16,68.25-80.3,69.58v18.74h127.14v-18.74c-26.1-1.33-40.82-12.71-40.82-28.1C4678.1,2558.43,4683.46,2545.04,4692.82,2527.65Zm583.09,69.58H5163.49V2360.37c0-38.14,6.69-54.19,32.79-54.19h1.34v-18.74H5075.83v18.74h3.35c24.76,0,30.78,16.05,30.78,54.19v182.67c0,38.14-6.69,54.19-32.79,54.19h-1.34v18.74h314.51v-80.29h-18.07C5354.2,2581.18,5326.1,2597.23,5275.91,2597.23Zm374.11,0H5537.6V2360.37c0-38.14,6.69-54.19,32.79-54.19h1.34v-18.74H5449.94v18.74h3.35c24.76,0,30.78,16.05,30.78,54.19v182.67c0,38.14-6.69,54.19-32.79,54.19h-1.34v18.74h314.51v-80.29h-18.07C5728.31,2581.18,5700.21,2597.23,5650.02,2597.23Zm-2806.84-736.4c-0.83-.83-27.07-2.5-57.89-4.16-74.96-3.75-104.53-5.84-139.51-10.84-15.83-2.08-41.23-5-56.23-6.25-14.99-.83-33.73-2.91-41.64-4.16-47.07-7.5-113.7-20.42-141.19-27.09-17.49-4.16-37.06-8.75-44.14-10-38.32-6.66-148.27-37.91-171.59-48.75-9.99-4.16-19.57-7.91-22.07-7.91-2.08,0-15.83-4.59-29.99-10-14.57-5.84-40.39-15.42-57.47-21.67s-33.32-12.92-35.4-14.58c-2.5-1.67-21.24-10-41.65-18.34-20.82-8.33-42.06-18.33-47.89-22.08s-21.66-12.5-35.4-19.58-28.74-15-33.32-17.5c-4.58-2.09-14.99-7.5-22.9-11.67-19.58-10.42-101.21-77.5-126.19-103.75-10.83-11.67-25.83-31.67-32.91-44.17l-12.91-22.91-1.25-114.59c-0.83-62.91-2.49-132.08-3.74-153.33-1.67-35.42-1.25-40,7.91-54.17,17.07-27.08,39.98-42.08,72.47-48.75,7.08-1.66,13.32-5.41,13.32-8.33s-9.99-14.17-22.49-24.58c-23.74-20.42-49.56-30-90.37-33.337-20.82-2.083-71.22,9.167-79.55,17.5-2.5,2.5-.83,10,4.58,21.25,11.25,22.09,8.75,37.92-10.41,60.84-19.15,23.75-28.73,29.58-53.72,32.91-11.25,2.09-22.91,5-25.82,7.09-6.25,5.41-8.33,1.25-13.33-25.84-2.08-12.5-7.91-33.75-12.49-47.08-5-13.75-8.75-27.08-8.75-30.42,0-15.83-51.23-107.08-66.22-117.913-6.25-4.167-5-40.834,1.67-58.75,7.91-20,40.81-53.334,63.3-64.167,70.38-33.75,157.43-49.167,223.23-40,84.54,12.083,149.93,42.083,206.57,94.167,23.74,22.5,39.56,48.333,50.39,83.333,7.08,21.25,8.75,62.917,3.75,76.67-2.5,5.83-24.99,31.66-50.81,56.66-57.06,56.25-75.8,85-82.88,127.92-4.16,25-8.33,34.58-19.16,47.5-7.49,8.75-12.91,18.75-12.49,22.08,2.08,10.84,99.12,83.75,111.2,83.75,2.5,0,12.07,5.42,22.07,12.09,21.66,14.58,118.69,61.66,159.51,77.08,16.24,6.25,32.9,12.92,37.48,15,31.23,12.92,63.72,25.42,68.72,26.25a51.487,51.487,0,0,1,11.24,4.17c2.92,1.66,17.91,6.66,33.32,11.25,15.41,4.16,45.39,12.5,65.8,18.75,68.3,20,161.59,41.66,199.49,46.25,9.16,1.25,18.32,3.33,20.41,4.58,3.75,2.08,35.4,7.08,96.62,14.17,89.96,10.41,179.5,16.25,254.04,16.25,58.31,0,195.33-6.25,218.65-10.42,5.83-.83,19.99-2.92,31.24-4.17,11.66-1.66,41.64-6.25,66.63-10.41,25.41-4.59,53.31-9.17,62.47-10.42s33.74-5.83,54.14-10.42c20.83-4.58,51.64-11.66,68.72-15,17.07-3.75,40.81-9.16,52.06-12.5,11.66-2.91,31.23-7.5,43.73-10,12.49-2.91,39.98-10.41,60.39-17.5,20.82-6.66,40.81-13.33,44.97-14.16,15-2.92,88.3-27.92,93.71-32.09,2.5-2.08,5-2.91,5-1.66,0,1.66,10.83-1.67,24.15-7.09,12.91-5.41,34.15-14.16,46.65-19.16,29.15-11.67,112.44-53.34,120.77-60,3.33-2.92,17.08-10.84,30.82-17.5,13.33-6.67,39.57-22.5,58.31-35.42l33.73-23.33-1.25-20.42c-0.83-11.25-5-31.25-9.58-44.17-4.16-13.33-7.91-27.08-7.91-30.83s-3.75-12.08-8.33-18.33c-4.58-6.67-13.74-22.5-20.82-35-14.16-27.09-37.9-64.17-55.81-87.92-15.83-20-22.07-31.67-30.4-55.833-19.99-58.334,7.5-137.5,63.72-183.334,16.24-13.75,71.21-42.083,84.96-44.583a266.023,266.023,0,0,0,27.49-6.25c19.99-6.25,97.03-8.333,129.1-3.75,42.48,5.833,95.37,18.333,102.04,23.333,3.33,2.917,9.99,6.25,15.4,7.5,9.17,2.917,47.9,39.584,66.64,62.5,14.16,17.5,20.82,40.834,20.82,72.084,0,32.916-4.58,45-34.98,90-27.49,40-42.9,72.91-46.23,97.91s-9.99,30-35.81,29.17l-21.66-.42,18.74-2.5c17.91-2.5,18.74-2.91,17.49-15-2.5-28.33-1.25-34.58,13.33-65.83,9.16-20.42,16.66-31.67,19.57-30,5,3.33,22.49-12.08,42.07-36.667,12.07-15,13.74-25.833,2.5-16.25-3.34,2.5-13.33,5.417-23.33,6.25-22.49,2.917-43.73-7.083-57.47-27.5-12.08-17.916-18.32-19.583-18.32-5.416,0,11.666-16.66,52.5-35.4,85.833-7.08,12.5-17.08,31.67-22.49,42.92l-9.58,19.58,11.24,15c6.25,8.33,16.66,16.67,23.32,19.17,6.67,2.08,12.08,5.83,12.08,8.33,0,8.33-34.98-16.25-46.23-32.92l-12.49-17.5,17.08-33.75c9.16-18.75,15.82-35.41,14.57-37.08-5.41-9.167-80.79-4.17-99.12,6.67-24.15,13.75-61.22,39.58-61.22,42.5,0,2.08,6.66,8.75,14.58,14.58,8.33,6.25,20.4,22.5,27.48,36.67,11.67,23.33,12.5,27.5,10.83,61.25-0.83,19.58-2.91,38.75-4.16,42.08-3.75,9.58-16.24,55-18.33,66.67-3.75,22.08-5.83,54.58-7.08,123.33-0.83,63.75-2.08,72.92-10.41,90.42-9.99,20.83-67.88,82.91-92.45,99.16-8.33,5.42-29.99,20-47.9,32.5-33.32,22.5-94.54,53.34-151.59,76.25-17.08,6.67-32.9,13.75-35.4,15.84-2.09,1.66-13.33,6.25-24.99,9.58-11.25,3.75-44.15,15-72.88,25s-62.47,20.83-74.97,23.75-25.82,7.08-29.15,8.75c-5,2.92-41.23,12.5-66.64,18.33-69.55,15-126.6,25.84-156.17,28.75-6.67.84-26.66,3.75-43.73,6.25-43.73,6.25-152.01,16.67-204.07,19.17C2978.53,1859.58,2845.26,1862.5,2843.18,1860.83Zm153.26-17.5c39.15-1.66,67.89-4.58,67.89-7.08,0-2.08-3.75-2.92-8.33-1.67s-8.33.42-8.33-1.66c0-5.42,32.48-4.59,34.15,1.25,2.08,5.41,30.4,5,78.71-.84,17.08-2.08,50.39-5.83,74.55-8.33,24.15-2.08,48.31-5,54.14-5.83,36.65-5.84,91.62-15.84,104.12-19.17,7.91-2.08,21.24-5,29.15-6.25,18.33-3.33,64.97-15.42,99.12-26.25,14.16-4.58,25.82-7.5,25.82-6.67,0,1.67,7.08-.83,114.53-39.16,106.2-37.92,192.41-80,260.29-126.25,32.49-22.09,106.62-94.17,112.03-108.75,5.83-15.84,5.83-39.59.42-61.67-4.58-16.67-3.75-43.33,1.67-85.42,2.49-16.25,7.91-77.08,8.33-86.25,0-4.16,1.66-7.5,3.74-7.5,5.83,0,1.25-22.08-4.99-24.16-4.17-1.25-5,0-3.34,5,3.75,9.58-4.58,25.41-16.24,32.08-5.41,2.92-12.91,9.58-16.24,14.58-8.75,13.75-122.03,88.75-134.1,89.17-2.92,0-5.42,1.67-5.42,3.75,0,1.67-12.49,9.58-27.9,16.67-42.06,20-69.13,35-78.71,43.33-9.58,8.75-95.79,39.58-117.45,42.5-7.91.83-17.49,4.58-21.24,7.92s-10.83,5.41-15.41,4.16c-5.41-1.25-11.66.84-16.24,5-4.58,4.59-12.91,7.5-22.49,7.09-7.91-.42-19.99,2.08-26.24,5.41-6.66,3.34-11.66,5-11.66,3.75s-7.91,1.67-17.49,6.67c-9.99,5-23.74,9.58-31.23,10.42s-17.08,3.33-21.66,5.41c-4.58,2.5-12.91,4.59-19.16,4.59-9.58,0-69.97,13.75-85.37,19.58-3.34,1.25-11.67,2.5-18.75,2.92-6.66.83-16.24,2.08-20.82,3.75a232.928,232.928,0,0,1-27.07,5c-10.41,1.66-29.15,5.41-41.65,8.75-12.49,2.91-28.32,6.66-35.4,7.5-77.46,12.5-76.21,12.5-124.94,17.08-13.74,1.25-37.06,3.75-52.06,5-41.23,4.58-326.51,5-356.91.83-14.58-2.08-39.15-4.58-54.56-5.83-15.41-.83-48.31-4.58-73.71-8.33-24.99-3.75-54.14-7.92-64.56-9.17s-33.73-6.67-52.05-12.5c-18.33-5.42-41.65-12.08-52.06-14.17-60.39-13.33-84.55-20-156.18-43.75-43.31-14.16-88.29-30-99.12-34.58-11.24-5-24.15-8.75-29.15-8.75s-13.74-3.75-19.57-8.33-12.08-8.34-13.75-8.34c-7.08,0-139.1-66.25-165.34-82.91-14.99-9.59-31.65-19.59-37.48-22.09-5.83-2.91-15.82-10.41-22.9-16.66-13.33-12.5-18.75-14.59-18.75-7.09,0,2.09-1.66,3.34-4.16,1.67-2.08-1.25-2.92-5-1.25-8.33,1.25-4.17-.83-6.25-6.66-6.25-5,0-8.75-2.5-8.75-6.25,0-5.84-44.14-43.75-50.81-43.75-7.91,0-2.08,15.83,9.16,27.08,7.08,7.08,18.75,19.17,26.24,27.08,27.9,30,64.14,62.92,80.8,74.17,21.24,13.33,22.9,19.58,4.99,15.83-19.99-3.75-41.23-15.41-48.31-25.83-3.33-5.42-9.16-10-12.07-10a6.049,6.049,0,0,1-5.83-6.25c0-7.5-5-7.92-11.67-1.25-8.74,8.75-5.41,22.08,7.92,35,12.49,11.67,28.73,38.75,28.73,47.5,0,2.08-4.58,4.17-10.41,4.17s-10.41-2.5-10.41-5.42-5.41-10.83-12.08-17.08l-12.08-11.67-10.82,17.08c-5.83,9.17-10.83,18.34-10.83,20s6.25,9.59,13.74,17.92l13.33,14.58-14.99-13.75c-13.33-12.5-15.83-13.33-19.16-7.5-2.5,4.17-6.66,5.84-10.41,4.59-8.33-3.34-13.33-15-8.33-18.34,2.91-2.08,17.49-28.33,17.49-32.08,0-4.17-35.82-34.17-38.73-32.08-1.67.83,1.66,10.41,7.49,20.83,11.25,19.17,11.25,27.5,0,17.92s-11.66,6.66-.83,30c21.66,45.41,108.28,121.25,191.16,167.5,23.32,12.91,36.65,15,27.9,3.75-5.41-6.25-4.99-6.25,3.34-1.25,4.58,3.33,7.91,7.91,6.66,10.83-1.25,3.33,9.16,10.83,27.49,20.42,16.24,7.91,29.98,14.16,30.81,13.75,0.84-.84,8.33,2.5,17.08,7.08,13.33,7.08,15.83,7.5,19.16,2.08,3.33-5,4.16-5,6.66,1.67,2.5,7.08,57.06,35.83,67.89,35.83,2.49,0,12.49,3.75,22.48,7.92,54.56,24.58,226.56,73.75,241.56,68.75,4.99-1.67,7.08-.83,5.41,1.67s0.83,3.33,5.83,2.08c4.58-1.25,10.83,0,13.75,2.5,3.33,2.5,7.08,3.33,8.32,2.08,1.25-1.66,5.84-1.25,10,.42s10.41,3.75,13.74,4.17,22.08,4.58,41.65,9.58,44.98,10,56.22,11.25c11.66,1.25,29.16,4.17,39.57,6.25s33.73,4.58,52.06,5.83,37.9,2.92,43.31,4.17c23.74,5.42,87.46,7.08,95.37,2.92,6.25-3.34,12.5-2.92,24.57,1.25C2811.53,1845.83,2898.99,1847.5,2996.44,1843.33ZM1754.53,1391.67c3.33-5-8.74-25-14.57-25-5.42,0-5.42,10.83,0,21.25C1744.95,1396.67,1750.37,1398.33,1754.53,1391.67Zm37.07-2.09c-1.67-3.33-4.17-6.25-6.25-6.25s-3.75,2.92-3.75,6.25a6.406,6.406,0,0,0,6.25,6.25C1791.6,1395.83,1792.85,1393.33,1791.6,1389.58Zm-29.16-50c2.5-25.41,1.67-32.5-3.74-37.91-3.34-3.34-6.25-7.92-6.25-10,0-6.67-25.41-33.34-31.65-33.34-9.16,0-7.08,5.42,9.58,26.67,11.66,15.42,14.16,20.42,9.58,23.33-5,3.34-4.59,9.17,2.08,27.09,2.5,6.66.41,5.83-9.58-3.75-7.5-6.67-14.58-11.25-15.83-9.59-3.33,3.34,9.58,23.75,15,23.75,2.49,0,4.16,2.09,4.16,5,0,5.84,12.91,19.59,19.16,19.59C1757.86,1370.83,1760.78,1358.33,1762.44,1339.58Zm-34.98-30.41c0-2.09-2.5-6.67-5.41-11.25-6.67-8.34-13.75-2.09-9.58,8.33C1714.97,1312.92,1727.46,1315,1727.46,1309.17Zm2296-62.5c8.74-9.59,5.41-21.67-6.25-21.67-6.66,0-7.5-2.08-5-14.58,1.67-10,.83-17.09-2.91-21.67-5.42-6.25-5-6.25,2.91-2.08,5,2.5,10,3.33,11.66,2.08,4.58-4.58,2.5-13.75-2.91-13.75-3.33,0-8.33-4.58-11.25-10.42s-7.91-10.41-11.24-10.41c-2.92,0-5.42-2.09-5.42-4.59,0-2.08,1.67-3.33,3.75-1.66,7.5,4.16,9.58-7.09,2.92-13.75-6.25-6.67-7.08-6.25-9.17,2.08-1.66,5.42-4.16,8.33-6.24,7.08s-2.08-5.41.41-10c3.34-6.25,1.25-10-11.66-20.83-8.33-7.08-12.07-12.08-7.91-10.83,4.58,1.25,7.08,0,7.08-3.75,0-3.34-3.75-6.25-7.91-6.25a9.482,9.482,0,0,1-9.58-8.34c-0.83-5-2.92-7.91-5-7.5-2.08.84-5.41-3.33-7.08-8.75-3.33-7.91-5-8.75-9.99-4.58s-6.25,4.17-6.25-1.25c0-7.08-35.82-33.33-42.48-31.25-4.17,1.67,54.14,70,59.97,70,1.67,0,3.33,2.5,3.33,5.42,0,2.5,3.75,9.58,8.33,15.41s8.33,14.17,8.33,18.75c0,5,1.67,10.42,4.17,12.92,2.08,2.08,8.74,22.5,14.57,45.42C4000.55,1265.83,4003.47,1269.17,4023.46,1246.67Zm-2241.44-3.75c9.99-12.5,19.99-35.84,22.07-52.09,1.25-8.33,6.25-25.41,10.83-37.91,7.91-21.67,14.58-30,52.06-70.42,13.74-15,18.32-24.17,11.66-24.17-5,0-31.65,10-37.48,13.75-2.92,1.67-11.66,2.09-19.16.84-8.33-1.67-28.74.83-52.06,6.25-37.48,8.75-49.98,16.66-26.65,16.66,8.74,0,9.99.84,4.99,4.17a33.3,33.3,0,0,1-14.99,4.17c-9.16,0-24.15,13.33-19.99,17.5,1.25,1.66,8.33.83,15.41-1.25,14.58-4.17,30.82-5,19.57-.84-27.48,10-42.48,18.75-39.14,22.09,2.91,2.91,10.41,2.08,22.49-2.09,22.9-7.91,26.65-5.41,4.58,3.34-8.75,3.75-17.49,8.33-18.33,10-4.58,7.08,25.82,66.66,44.56,87.91C1772.44,1252.08,1774.52,1252.08,1782.02,1242.92Zm-54.56-9.59c0-3.75-12.91-12.5-18.74-12.5-1.25,0-.42,3.75,2.08,8.34C1715.38,1237.5,1727.46,1240.83,1727.46,1233.33Zm2310.57-17.91c1.67-8.75-10.41-14.17-16.66-7.92-3.33,3.33-3.33,6.67.84,11.25C4028.87,1226.67,4036.37,1225,4038.03,1215.42Zm21.66-7.09a4.175,4.175,0,0,0-4.17-4.16,4.474,4.474,0,0,0-4.16,4.16,4.175,4.175,0,0,0,4.16,4.17A3.942,3.942,0,0,0,4059.69,1208.33Zm-2344.72-7.91c0-8.34-7.08-15.42-11.25-11.67-2.91,3.33,2.92,19.58,7.5,19.58C1713.3,1208.33,1714.97,1204.58,1714.97,1200.42Zm2330.14-4.17c2.92-5-5-10-10.41-6.67-4.58,2.92-1.67,10.42,4.16,10.42C4040.95,1200,4043.45,1198.33,4045.11,1196.25Zm7.91-21.67a4.5,4.5,0,1,0-1.24,6.25A4.241,4.241,0,0,0,4053.02,1174.58Zm-22.48-10a2.085,2.085,0,1,0-2.09,2.09A1.971,1.971,0,0,0,4030.54,1164.58Zm-11.67-12.5c0-2.08-2.08-4.58-4.58-5.41s-4.58,1.66-4.58,5.41,2.08,6.25,4.58,5.42S4018.87,1154.17,4018.87,1152.08Zm44.98,2.09c0-2.09-.83-4.17-1.66-4.17-1.25,0-3.33,2.08-4.58,4.17-1.25,2.5-.42,4.16,1.66,4.16A4.275,4.275,0,0,0,4063.85,1154.17Zm-16.66-10.42c0-3.33-1.66-6.25-4.16-6.25-2.08,0-4.17,2.92-4.17,6.25s2.09,6.25,4.17,6.25C4045.53,1150,4047.19,1147.08,4047.19,1143.75Zm-14.57-10.42c4.58-7.08-2.08-13.33-8.75-7.91-2.91,2.5-4.58,6.25-3.33,8.33C4023.46,1138.75,4029.29,1138.33,4032.62,1133.33Zm-18.74-15c0-7.08-10.83-7.91-15-1.25-2.91,5,6.25,12.92,11.67,9.59C4012.21,1125.42,4013.88,1121.67,4013.88,1118.33ZM1554.21,1115c17.91-10.83,39.98-38.33,39.98-49.58,0-4.59-4.16-14.17-9.58-21.25-17.49-24.17-18.74-29.17-30.4-126.253-2.08-17.5-7.5-23.334-11.24-12.5-0.84,2.5-2.92-2.084-4.59-10.834-2.08-12.083-5.83-16.666-14.16-20-12.91-5-37.06-1.666-39.56,5.834-2.5,7.083,9.16,19.583,16.66,16.666,5-2.083,5.41,1.667,3.33,23.334-1.25,13.75-1.67,25.416-.42,25.416,10.42,0,15-6.666,15-22.083,0-16.25.41-16.667,6.66-8.75,4.58,5.417,7.08,6.25,8.33,2.917,1.25-2.917,4.16-5.417,6.25-5.417,2.5,0,2.91,2.083,1.66,4.167-1.66,2.5-3.75,9.583-4.58,15.416-1.25,6.25-2.5,11.667-2.91,11.667-0.42.417-9.17,5.417-19.58,10.833-14.99,8.334-22.07,10-36.23,7.917-21.24-3.333-30.4.417-22.91,9.583,3.33,4.167,12.5,5.834,25.82,5.417,11.67,0,20.83.833,20.83,2.917,0,1.666-3.75,2.916-8.33,2.916s-8.33,2.917-8.33,6.667,3.33,5.833,7.5,5.417a71.031,71.031,0,0,1,13.32,0c5,0.416,5,1.666-.83,5-9.58,5.41-9.58,12.08-.42,12.08,6.25,0,6.25.42-.83,5.42-9.16,7.08-5,15.41,7.5,15.41,6.66,0,7.49,1.25,3.74,5-7.08,7.09-6.24,11.67,2.5,11.67,5.83,0,5,1.67-3.33,7.92l-10.41,8.33,16.66,1.25,16.66,1.67-13.33,3.33c-7.5,2.08-13.74,5-13.74,7.08,0,1.67,6.24,3.75,13.74,4.59l13.33,1.66-12.5,5.84-12.49,5.83,16.24,1.67c14.58,1.25,14.99,2.08,8.33,7.08-4.58,3.33-12.91,4.58-19.16,3.33-8.33-1.66-11.66-.41-11.66,3.75,0,3.34,1.25,7.5,2.5,8.75C1514.65,1127.5,1540.47,1123.33,1554.21,1115Zm2438.84-8.33c0-8.75-8.74-12.92-12.49-6.25-2.08,2.91-2.5,7.08-1.67,8.75C3982.64,1115,3993.05,1112.92,3993.05,1106.67Zm48.73,2.91a5,5,0,0,0-5.83,0c-1.25,1.67,0,2.92,2.91,2.92S4043.03,1111.25,4041.78,1109.58ZM4029.29,1090c-2.5-7.92-10.83-7.08-15.41,2.08-4.17,7.09-3.75,9.59.41,12.5C4020.54,1108.33,4031.79,1097.5,4029.29,1090Zm-24.16-4.17c3.33-4.16,3.33-6.66-.83-10.41-6.67-5.42-11.25-2.09-11.25,8.75C3993.05,1092.92,3998.47,1093.75,4005.13,1085.83Zm-2194.38-31.66c0-6.25-19.99-36.67-41.23-61.67-9.99-12.083-15.4-20.833-12.07-19.583s14.99,12.5,25.4,25c10.83,12.083,24.99,26.253,31.24,30.833l11.66,7.92-0.42-8.75c0-9.59-27.49-48.337-52.47-74.587-8.33-8.75-13.75-15.833-11.66-15.833,4.58,0,45.39,42.083,45.39,47.083,0,1.667,2.08,2.917,4.16,2.917,2.92,0,3.34-5.833,1.67-15.417-2.91-16.25-23.74-42.916-33.73-42.916-2.92,0-5.42-2.917-5.42-7.084,0-5.833,1.25-5.833,9.58,1.25,5,4.167,14.16,13.75,20.82,20.417,26.24,28.75,41.65,43.75,42.9,42.5,2.92-2.917-7.91-39.167-13.74-45.417-3.75-4.166-5.42-7.5-3.75-7.5s11.66,8.75,22.07,20l18.33,19.584L1867.39,960c-2.08-12.917-5.83-18.75-39.98-57.5-10.41-11.667-13.32-16.667-6.66-10.833,19.57,17.083,41.23,39.583,53.72,55.833,6.25,8.333,14.16,15,17.5,15,8.74,0,7.91-5-4.17-22.5-5.83-8.333-10.41-16.667-10.41-18.75,0-1.667-18.32-20.417-40.4-42.083-27.9-26.25-34.98-34.584-22.07-25.834,10.41,7.084,27.9,22.5,39.15,34.167s23.74,22.917,27.9,25.417c4.58,2.083,7.91,6.25,7.91,9.166,0.42,7.084,33.32,39.584,33.32,32.917,0-25-49.14-83.75-96.62-114.583-23.32-15.417-27.9-19.584-20.82-19.584,5.41,0,44.98,26.667,63.3,42.917,18.74,16.25,20.41,17.083,30.82,12.917,9.16-3.334-25.82-37.5-59.97-58.75C1777.85,779.583,1725.38,765,1648.33,765c-48.72-.417-62.05,1.25-97.87,11.25-70.8,18.75-106.2,41.25-129.52,80.417C1395.95,898.75,1424.27,950,1472.58,950h14.16l-2.91-17.5c-1.67-10-5.42-27.917-8.33-40-5.42-21.25-5.42-22.5,3.33-25.417,15.41-5.833,44.56-2.083,57.47,7.5,6.25,4.584,13.33,8.75,15.83,8.75,2.08,0,5,5,6.66,11.25,1.25,6.25,5,12.917,7.5,14.584s4.16,13.75,3.75,29.166c-0.84,24.584,8.74,70,14.57,70,1.25,0,12.91-5,25.82-11.247,19.99-10,27.91-11.666,56.64-10.833,61.64,1.25,64.56,2.5,111.62,48.33C1802.84,1057.92,1810.75,1062.92,1810.75,1054.17Zm2248.52-32.09c32.49-20.41,58.31-27.5,97.87-26.247,16.66,0.417,19.99-.833,17.91-5.833-1.67-4.167-.42-6.667,3.33-6.667,7.92,0,7.92-6.666.42-9.583-6.25-2.5-6.25-15-.42-29.167,3.75-8.333,0-13.333-12.49-17.083-4.58-1.25-.42-1.25,9.58,0,23.32,2.917,24.99-7.917,2.08-14.167-12.08-3.333-13.33-4.166-5.83-4.583,5.83-.417,16.24,1.667,24.15,4.583,7.5,2.5,15,3.334,16.66,1.667,5-4.583-13.74-18.333-32.48-23.75-8.75-2.917-16.24-6.667-16.24-8.75,0-4.583,2.91-4.167,16.65,2.917,7.92,4.166,12.5,5,12.5,2.083,0-2.5,5.41-.833,12.08,3.75,6.66,5,15.41,8.75,19.57,8.75,6.66,0,6.66-.833-0.83-8.75-4.17-5-17.08-13.333-28.74-18.75-11.24-5.417-17.49-9.583-13.74-10,3.75,0,8.33,2.083,9.58,4.167,2.91,5,22.9,5.416,22.9.833,0-6.25-14.16-16.667-26.24-19.583-6.24-1.667-12.49-5-14.16-7.5-1.66-2.917,0-3.334,5.42-1.25,17.49,7.083,36.23,11.25,41.65,9.166,2.91-1.25,10.82,2.5,16.65,7.917,6.25,5.833,12.91,10.417,14.58,10.417,8.33,0,2.5-8.334-13.74-20.417-21.66-15.833-19.99-16.25,9.16-1.25,21.24,10.833,32.9,25.833,20.41,25.833-2.92,0-8.75,2.917-12.91,7.084-10,8.75-10.83,50.416-1.25,53.75,3.33,1.666,6.24,5,6.24,7.916,0,6.667,7.5,12.5,20.83,16.667,9.16,2.917,9.58,2.5,4.58-3.75-5-5.833-4.58-6.667,1.25-6.667,8.74,0,8.33-3.75-.42-11.25-7.08-5.416-6.66-5.833,2.08-4.166,5,1.25,9.17.416,9.17-1.25,0-2.084-4.17-6.667-9.17-10.834-9.58-6.666-9.58-6.666,4.17-4.166,14.99,2.5,17.07,0,6.25-8.334-7.08-5-6.67-5.416,2.08-5.833,12.91,0,11.66-9.583-3.33-22.083-7.08-6.25-10.42-11.25-7.5-12.084,2.91-1.25-3.33-10-13.74-20-20.41-20.416-15-18.75,12.07,3.75,10,8.334,22.91,23.75,28.32,34.584,10,20,16.25,26.666,19.58,21.25,4.16-7.917-11.66-31.667-42.07-62.917-17.9-18.75-32.48-34.167-32.06-34.167s10.41,7.084,22.07,16.25c19.99,14.584,30.82,26.667,52.06,56.667,19.57,27.5,14.16-.833-6.67-36.667-17.49-29.583-53.3-52.916-109.11-70.833-69.13-22.083-172-20.417-242.39,3.333-73.71,25-122.85,93.75-119.94,167.084,1.25,33.75,8.75,52.916,29.57,74.163,17.08,17.5,39.15,24.59,95.37,30,13.75,1.67,25.82,3.34,26.66,4.17,1.25,0.83,5.83-1.25,10.41-4.58C4024.71,1044.58,4042.2,1032.92,4059.27,1022.08Zm-2200.2,5c-4.59-12.5-31.66-52.08-35.4-52.08-2.09,0-2.5,6.25-.42,14.167,3.75,17.913,7.5,23.333,14.58,23.333,2.91,0,6.66,4.58,7.91,10.42,1.66,5.83,5.83,10.41,9.16,10.41C1859.07,1033.33,1860.73,1030.83,1859.07,1027.08Zm26.65-4.16c0-10-16.24-39.587-27.9-51.67-8.75-8.75-10-9.167-7.5-2.5a169.09,169.09,0,0,1,5.41,18.75c1.25,5.833,6.67,15.83,11.66,22.08,5.42,6.67,10,13.75,10,15.84a4.109,4.109,0,0,0,4.16,3.75C1884.05,1029.17,1885.72,1026.25,1885.72,1022.92Zm19.57-5c-2.91-15-16.24-42.5-21.65-44.17-6.67-2.917-4.58,8.75,6.66,33.75C1898.21,1025,1907.79,1031.67,1905.29,1017.92Zm12.5-37.5a5,5,0,0,0-5.83,0c-1.25,1.666,0,2.916,2.91,2.916S1919.04,982.083,1917.79,980.417Zm13.74-3.334a2.08,2.08,0,1,0-2.08,2.084A1.965,1.965,0,0,0,1931.53,977.083Zm2259.76-21.666c-4.16-4.167-7.91,2.083-4.16,7.5,2.5,4.583,3.33,4.583,5,0C4192.96,960,4192.54,956.667,4191.29,955.417Zm134.11,0.833c0.83-.833-0.84-5.417-3.34-10.417-3.74-6.666-3.74-10.416-.41-13.75s4.58-2.083,4.58,4.167c0,11.25,7.08,15.833,14.58,9.583,4.58-3.75,4.16-7.083-2.92-19.166-7.91-13.75-15.83-18.75-15.83-10,0,2.5-2.08,3.75-4.58,3.333-5.83-1.667-16.66,27.917-13.32,36.667C4306.24,961.667,4319.15,961.667,4325.4,956.25Zm-115.78-8.333c-2.92-3.334-9.16-6.25-14.16-6.25-8.75.416-8.75,0.416-.84,6.25C4205.87,956.667,4216.7,956.25,4209.62,947.917Zm139.93-38.334c-4.58-4.583-7.91,2.5-4.58,10,3.33,7.084,3.33,7.084,5,0C4351.22,915.417,4350.8,910.833,4349.55,909.583Zm-2422.18,1.25c0-7.916-14.16-31.666-18.74-31.666-8.33,0-7.92,2.5,2.49,19.166C1918.2,910,1927.37,917.083,1927.37,910.833Zm2307.24-37.916c-2.92-3.334-6.67-6.25-8.75-6.25s-2.5,2.916-1.25,6.25c1.67,3.333,5.41,6.25,8.75,6.25C4238.77,879.167,4238.77,877.917,4234.61,872.917ZM3222.59,1818.75a2.08,2.08,0,1,1,2.08,2.08A1.963,1.963,0,0,1,3222.59,1818.75Zm-366.5-15.42c-5.83-2.08-25.4-4.16-43.73-4.16-38.73-.42-45.39-3.75-41.23-21.67,8.75-38.33,11.66-70.42,9.58-96.25-1.25-15.83-1.66-34.58-.41-40.83,2.08-12.92,5.83-13.34,42.47-4.17,7.92,2.08,22.49,2.5,32.49,1.25,19.57-3.33,22.91,2.08,9.58,14.17-5.83,5-12.08,6.66-22.07,5-40.4-6.67-49.15-7.5-49.15-5,0,5.83,13.75,46.25,17.08,50,1.66,1.66,7.08.83,12.07-2.92,10-7.08,24.58-5,32.49,4.58,8.75,11.67,5.83,12.92-21.24,10.42l-26.65-2.5-3.34,14.17c-1.66,7.91-4.16,18.75-4.99,24.58a38.14,38.14,0,0,1-7.92,17.08c-6.24,7.09-7.91,20.42-2.5,20.42,2.09,0,7.08-2.92,11.67-6.25,12.07-9.17,39.56-7.5,60.38,3.33C2889.83,1800,2886.08,1815.83,2856.09,1803.33Zm-331.92-18.75c-3.34-7.5-10.83-15-15.83-16.25s-16.24-9.16-24.57-17.91c-21.24-22.09-25.41-45.42-12.91-81.67,8.74-25.83,28.73-54.17,35.81-50,1.67,1.25,7.92.42,13.75-2.08,6.66-2.5,11.24-2.5,12.91,0s5.41,4.16,8.74,4.16c14.16,0,38.32,21.25,45.4,40.42,13.74,36.25-2.5,84.58-35.4,104.17-13.33,7.5-15.41,11.66-8.33,15.83,7.91,4.58,4.58,17.08-4.58,17.08C2533.75,1798.33,2528.33,1793.33,2524.17,1784.58Zm19.15-30.41c7.92,0,20.83-33.34,23.33-60.42,2.91-34.58-4.17-53.33-25.82-65.83-11.67-6.67-15-7.09-24.99-2.09-17.49,8.34-29.99,37.09-30.41,70,0,27.92,7.92,47.09,17.91,45,2.92-.83,9.58,3.34,14.58,8.34,5.41,5.41,12.49,8.75,16.24,7.5C2537.49,1755.42,2541.66,1754.17,2543.32,1754.17Zm485.61,32.5c-12.5-43.75-35.82-98.75-52.48-123.34-14.16-20.83-12.49-27.91,3.75-20.41,14.16,6.25,28.32,22.08,34.15,38.33,15.41,40.42,22.49,52.5,27.49,47.08,6.24-6.66,39.15-71.66,39.15-77.5,0-2.08,4.58-7.08,9.99-10.83,12.5-7.92,17.91-2.08,12.08,11.25-2.5,5-8.33,17.5-12.91,27.92s-15.41,37.5-23.74,60.41-16.66,44.59-18.33,47.92C3042.67,1797.5,3031.84,1797.08,3028.93,1786.67Zm-380.24,2.08c-19.57-3.75-26.65-48.75-14.99-95,1.25-5-.42-20.42-3.75-34.58-7.08-30-2.92-36.25,12.49-20.84,7.5,7.92,10.83,16.25,12.5,32.92,3.33,38.75,2.91,44.17-6.67,62.08-12.49,23.75-8.74,40.42,10,48.34,12.49,5,15.41,5,26.65-1.67,7.08-3.75,15.83-13.33,19.99-20.83,7.08-12.92,7.08-14.17,0-26.25-3.74-7.09-7.08-20-7.08-29.17,0-24.58,23.33-69.17,31.66-60.83,1.66,1.25.41,11.25-2.5,22.5-3.75,14.16-4.17,29.16-1.25,52.08,4.16,35.83,2.91,39.17-25.41,61.25C2684.51,1791.25,2673.68,1793.33,2648.69,1788.75Zm528.08-9.17c-30.4-15.83-41.23-37.08-40.39-77.91,1.66-53.34,30.81-92.09,69.13-90.42,20.82,0.42,58.72,18.75,58.72,28.33a8.344,8.344,0,0,0,5,7.09c3.75,1.25,5.41,13.75,5,41.25,0,30.83-2.08,43.33-8.75,57.91-14.57,31.67-19.99,35.84-57.05,43.75C3203.43,1790.83,3189.68,1786.25,3176.77,1779.58Zm56.64-15.83c15.41-16.67,21.24-40,16.66-66.67a257.517,257.517,0,0,1-2.5-29.58c0.42-10.83-3.33-17.92-15.82-30.42-18.74-18.75-31.65-20.41-48.31-7.5-17.08,13.75-23.74,34.59-22.91,72.5,0.83,38.75,4.17,50.42,18.74,65.84C3195.1,1785,3215.51,1783.75,3233.41,1763.75Zm130.36-6.25c-10.41-3.75-36.65-30.83-37.48-38.33-0.42-2.5-1.25-13.75-2.09-25.42-0.83-11.25-2.91-23.75-4.58-27.08a114.147,114.147,0,0,1-4.16-14.17c-0.83-4.58-5.83-16.25-11.66-26.25-7.08-13.33-8.33-17.92-4.17-17.92,12.5,0,27.07,10,32.9,22.5,12.91,27.5,15.41,38.75,15.41,67.09-0.41,37.08,1.25,41.66,16.24,47.91,15.41,6.25,33.74,0,43.73-15,8.33-12.91,7.92-20.83-3.74-45.41-6.25-14.17-9.17-26.25-7.92-35.42,2.09-16.25,16.25-47.5,24.99-55,5-3.75,5.42-.42,2.92,22.5-1.67,15.42-.42,39.17,2.5,56.67,6.24,37.08,3.33,50.83-14.58,68.33C3396.25,1757.92,3379.18,1762.92,3363.77,1757.5Zm-1001.19-12.08c-3.75-5.84-20.83-12.09-47.9-16.67-12.49-2.5-26.23-5-29.98-6.25-8.75-2.5-9.58-13.33-2.09-24.58,13.75-20.42,22.08-91.67,13.75-117.5-1.25-4.17,0-11.25,2.91-15.42,5.42-7.5,6.25-7.5,22.08.83,8.74,4.17,23.73,9.59,32.9,11.25,9.16,2.09,17.91,3.75,19.99,4.17,1.66,0.83,7.49,1.25,13.32,1.67,12.92,0.41,13.75,7.08,1.25,11.25-13.32,4.16-35.4,2.5-52.05-4.59-8.33-3.33-15.41-6.25-15.83-6.25-3.75,0-5.41,14.17-2.5,20,2.08,3.75,5.41,12.5,7.5,19.59,2.08,7.5,6.66,12.91,11.66,13.75,12.08,2.08,34.98,14.16,37.06,20.41,3.34,8.75-5.41,10.42-19.15,3.75-21.24-10.83-26.66-8.75-40.4,16.25-7.08,12.5-12.91,24.59-12.91,26.67,0,2.5,7.91,6.25,17.91,8.75,29.15,7.5,42.06,13.33,49.56,22.5,6.66,8.33,6.24,15-.84,15C2366.74,1750,2363.83,1747.92,2362.58,1745.42Zm1132.79-25c8.33-46.25,4.17-131.25-6.66-143.34-4.58-4.58-5-24.16-.42-21.25,2.09,1.25,8.75-.83,15-4.16,7.08-3.34,23.32-5.84,39.56-5.84,24.99,0,29.15,1.25,38.73,11.67,15.41,16.67,18.74,25,21.66,55.42,4.58,47.5-13.33,79.16-55.39,97.91-12.08,5.42-24.16,10-26.24,10-2.5,0-9.99,4.17-17.07,9.17l-12.5,9.17Zm53.73-21.25c30.4-14.59,41.64-51.25,29.57-93.75-7.08-23.34-18.33-38.34-36.24-45.84-12.07-5.41-40.81-2.5-40.81,3.75,0,2.09,4.58,12.09,10.83,22.09,16.24,28.33,17.91,80.83,3.75,115.83C3512.03,1711.25,3525.77,1710.83,3549.1,1699.17Zm-625.12,27.5c-3.33-8.75,5.41-17.5,11.66-11.25,5.41,5.41,2.08,17.91-4.58,17.91C2928.56,1733.33,2925.64,1730.42,2923.98,1726.67Zm-756.73-32.5c-28.73-27.09-34.98-64.17-17.49-104.17,10.41-23.75,19.16-31.25,44.98-40.42,12.08-4.16,18.74-4.16,32.07,0,9.58,2.5,17.07,7.09,17.07,9.59s-3.75,3.33-9.16,1.25c-24.99-7.92-32.9-7.5-43.31,2.5-29.57,27.91-37.07,93.75-13.75,118.75,11.67,12.5,30.82,15,43.73,5,7.5-6.25,9.58-6.67,7.5-1.67-3.33,8.75-27.49,23.33-38.32,23.33C2185.99,1708.33,2175.17,1702.08,2167.25,1694.17Zm244.47-13.34c-1.25-3.33-.42-8.33,2.08-10.83,6.25-6.25,17.91,3.33,14.58,11.67C2425.46,1689.58,2415.05,1689.17,2411.72,1680.83ZM3649.05,1665c-1.25-3.33-.42-19.58,2.08-36.25,3.33-23.75,2.92-36.67-2.5-61.67-3.33-17.5-7.49-33.33-9.16-35.83-2.5-3.75-2.91-8.33-.83-16.67,1.66-7.08,25.4,25,25.4,33.75,0,5.84,2.92,15.84,6.25,22.5,5.41,10.84,7.5,11.67,16.66,8.34,12.08-4.59,32.07-17.09,35.81-22.09,4.17-5.83-4.16-41.25-11.24-49.16-9.16-10-20.82-11.25-43.31-5-23.74,6.66-27.07,6.66-21.24,0,7.91-10,35.81-16.67,55.39-13.75,15.82,2.5,19.99,5,27.48,18.75,11.67,20.41,12.08,45,.84,56.66-8.33,8.75-8.33,9.17-.42,25.42,4.58,8.75,13.74,22.5,20.82,29.58,6.67,7.5,10.42,14.59,8.33,16.25-8.74,5.42-24.98-3.33-34.98-18.33-18.74-28.33-21.24-30.42-32.9-27.5-13.74,3.33-15.83,7.08-17.49,28.33C3670.71,1656.67,3656.13,1683.75,3649.05,1665Zm-1606.32-30.83c-5.83-6.67-6.25-11.25-2.5-33.75,5.41-30.42-.42-78.75-12.91-107.5-6.25-13.75-6.66-17.92-2.5-17.92,7.08,0,15.83,12.92,25.4,38.75,4.17,10.83,9.58,19.58,12.92,19.58,2.91,0,9.16-6.25,13.74-14.16,7.5-12.09,18.32-18.75,30.82-19.17,6.24,0,2.5,11.25-5.83,19.17-12.08,10.41-28.74,37.5-33.74,53.33-7.91,26.25-8.74,30-10.41,49.58C2055.64,1643.33,2053.14,1645.42,2042.73,1634.17Zm-86.21-7.09a2.08,2.08,0,1,1,2.08,2.09A1.963,1.963,0,0,1,1956.52,1627.08Zm1834.55-17.5c1.25-8.75,6.24-23.75,10.41-32.91,9.16-21.25,14.16-75.84,9.16-104.59-3.75-20.83-3.33-22.5,7.08-28.75,7.5-5,10.83-5.83,12.08-2.08,0.83,2.5,12.91,20,27.07,38.75,23.32,30.83,60.39,65.83,69.96,65.83a3.732,3.732,0,0,1,3.75,3.75c0,7.92-22.07,7.5-37.06-.83l-15.41-8.33-22.91,12.08c-18.32,10-24.99,16.25-34.98,35.42C3799.81,1625.83,3786.07,1635.83,3791.07,1609.58Zm66.63-72.91c5.83-2.5,10.41-6.25,10.41-7.92,0-5.83-25.4-32.92-28.73-30.83-1.67.83-3.34,11.25-3.75,22.91C3835.21,1543.33,3838.13,1545.83,3857.7,1536.67Zm-1938.66,71.66c-3.75-2.5-4.17-4.16-1.25-4.16a10.543,10.543,0,0,1,7.49,4.16C1928.62,1613.33,1926.95,1613.33,1919.04,1608.33Zm-25.82-15c-15.83-8.33-15-11.66.83-3.75,7.08,3.75,12.49,7.5,12.49,8.34C1906.54,1600.83,1906.13,1600.42,1893.22,1593.33Zm70.8-2.91c-5.84-5-14.58-17.92-19.16-28.75-5.83-13.34-12.91-21.67-22.07-26.67-21.66-11.25-37.49-14.17-46.23-9.58-4.17,2.5-12.91,3.75-19.16,2.91-11.25-1.25-10.83-1.66,14.58-28.75,14.16-15.41,29.15-35,33.73-43.75,11.24-22.08,24.57-35.41,32.07-32.5,3.33,1.67,6.66,4.59,6.66,7.5,1.67,15.42,2.92,25.42,5.42,52.92,3.33,35,12.91,75,21.65,92.5C1981.51,1594.58,1977.76,1602.08,1964.02,1590.42Zm-31.66-87.09c0.84-12.08.84-25.41,0-29.58-1.66-7.08-2.49-7.08-9.57-.42-4.59,3.75-7.92,9.17-7.92,12.09s-3.75,8.33-8.33,12.5-8.33,9.16-8.33,11.25c0,3.33,22.91,15.41,29.99,15.83C1929.45,1525,1931.53,1515,1932.36,1503.33Zm172.01,88.34c-1.25-2.5.41-5.42,4.16-6.67,7.91-3.33,12.49,0,8.33,6.25C2113.53,1597.08,2107.7,1597.08,2104.37,1591.67Zm-250.3-25.84c-1.67-2.91-1.25-3.33,1.66-1.66s5,3.75,5,5C1860.73,1572.5,1856.98,1570.83,1854.07,1565.83Zm2099.42-57.91c-12.08-2.5-12.08-2.92-1.67-3.34,25.41-1.25,39.57-25.41,28.32-47.5-7.08-12.91-11.66-15.41-29.98-15.41-8.75,0-19.58-1.67-23.74-4.17-9.58-5-17.91-29.17-14.58-42.08,5.42-20.42,32.07-42.09,40.82-33.34,2.91,2.92-.42,6.67-10.83,12.92-16.66,10-21.24,18.33-15.41,29.17,4.16,7.5,25.82,17.5,49.14,22.91,17.49,3.75,27.49,22.09,24.57,44.59C3996.39,1497.92,3976.81,1513.75,3953.49,1507.92ZM1756.2,1472.08c-5.42-6.66-5-7.08,1.66-1.66s8.75,8.75,5.42,8.75C1762.44,1479.17,1759.11,1475.83,1756.2,1472.08Zm35.4-22.91c-1.67-2.92-1.25-3.34,1.66-1.67s5,3.75,5,5C1798.26,1455.83,1794.51,1454.17,1791.6,1449.17Zm2212.28-56.25c-5.41-5.84-2.08-13.75,5.83-13.75,4.58,0,8.33,2.5,8.33,5.83C4018.04,1391.25,4008.05,1396.67,4003.88,1392.92ZM1756.61,1114.58a2.085,2.085,0,1,1,2.09,2.09A1.971,1.971,0,0,1,1756.61,1114.58Zm17.91-5a5,5,0,0,1,5.83,0c1.25,1.67,0,2.92-2.91,2.92S1773.27,1111.25,1774.52,1109.58Zm-12.49-16.66a5,5,0,0,1,5.83,0c1.25,1.66,0,2.91-2.92,2.91S1760.78,1094.58,1762.03,1092.92Zm46.64-177.087c-12.08-12.5-12.08-12.5-1.25-5.833,5.83,4.167,12.08,10,13.33,13.333C1823.67,931.25,1822.83,930.833,1808.67,915.833ZM1794.1,818.75a2.08,2.08,0,1,1,2.08,2.083A1.965,1.965,0,0,1,1794.1,818.75Zm-284.87-14.583c2.08-1.667,11.25-4.584,20.41-5.834,18.74-2.916,15.82-.833-7.91,5.417C1512.56,806.25,1507.15,806.25,1509.23,804.167Zm44.56-11.25c3.75-.834,9.58-0.834,12.5,0,2.5,1.25-.42,2.083-7.5,2.083C1552.13,795,1549.63,794.167,1553.79,792.917Zm149.93,0c3.75-.834,9.58-0.834,12.5,0,2.5,1.25-.42,2.083-7.5,2.083C1702.06,795,1699.56,794.167,1703.72,792.917ZM1576.7,788.75a21.976,21.976,0,0,1,10.41,0c2.5,1.25.42,2.083-5.41,2.083S1573.78,790,1576.7,788.75Zm85.38,0a42.767,42.767,0,0,1,14.57,0c3.75,1.25.42,2.083-7.49,2.083S1657.91,790,1662.08,788.75Zm-67.89-3.333a2.085,2.085,0,1,1,2.08,2.083A1.966,1.966,0,0,1,1594.19,785.417Zm19.99-.834a146.909,146.909,0,0,1,27.07,0c7.08,0.834,1.25,1.667-13.74,1.667S1606.68,785.417,1614.18,784.583ZM4145.06,904.167c1.25-2.084,5-2.917,8.33-1.25,8.75,2.916,7.92,5.416-2.49,5.416C4146.31,908.333,4143.4,906.667,4145.06,904.167Zm22.91-43.75a2.085,2.085,0,1,1,2.08,2.083A1.966,1.966,0,0,1,4167.97,860.417Zm74.55-38.334c-5.42-6.25-5-6.25,3.75-1.666,9.58,5,11.66,8.75,5.41,8.75C4249.6,829.167,4245.43,826.25,4242.52,822.083Zm-316.1,1.25c0-.833,3.33-4.166,7.49-7.083,6.25-5.417,6.67-5,1.25,1.667S3926.42,826.667,3926.42,823.333Zm301.11-9.583a5,5,0,0,1,5.83,0c1.25,1.667,0,2.917-2.92,2.917S4226.28,815.417,4227.53,813.75Zm-12.5-4.167a5,5,0,0,1,5.83,0c1.25,1.667,0,2.917-2.91,2.917S4213.78,811.25,4215.03,809.583Zm-263.62-3.333a2.08,2.08,0,1,1,2.08,2.083A1.965,1.965,0,0,1,3951.41,806.25Zm235.3-2.083-8.33-3.75h8.33a48.173,48.173,0,0,1,16.66,3.75l8.33,3.75h-8.33A48.2,48.2,0,0,1,4186.71,804.167Zm60.39-2.084a2.08,2.08,0,1,1,2.08,2.084A1.965,1.965,0,0,1,4247.1,802.083Zm-273.62-9.166a5,5,0,0,1,5.83,0c1.25,1.666,0,2.916-2.92,2.916S3972.23,794.583,3973.48,792.917Zm19.57-7.084c5.83-3.333,21.66-7.083,35.4-8.333l24.99-2.5-26.24,6.25c-14.57,2.917-30.4,7.083-35.4,8.333C3983.89,791.667,3983.89,791.25,3993.05,785.833Zm222.4,0.834c-1.67-2.917-1.25-3.334,1.66-1.667,5,2.917,6.67,6.667,3.34,6.667C4219.2,791.667,4217.11,789.583,4215.45,786.667Zm-10-1.25a2.085,2.085,0,1,1,2.09,2.083A1.974,1.974,0,0,1,4205.45,785.417Zm-142.43-13.334c2.92-1.25,6.66-.833,7.91.417,1.67,1.25-.83,2.5-5.41,2.083C4060.94,774.583,4059.69,773.333,4063.02,772.083ZM1875.31,1288.33c-43.32-24.58-52.48-74.58-21.24-117.08,27.07-36.67,57.47-50.42,92.45-41.67,15.41,4.17,19.16,7.09,26.24,22.09,11.25,23.33,8.75,42.5-7.08,57.08-14.57,13.75-26.24,15.42-34.57,5-5.41-6.25-4.58-6.67,5.42-4.17,8.33,2.09,13.74.42,21.65-6.25,10.83-10.41,18.33-28.33,11.25-28.33-2.5,0-6.66,4.17-9.16,9.58-5,9.17-15.83,19.17-21.24,19.59-5,0,1.66-16.25,7.49-18.34a9.505,9.505,0,0,0,5.83-8.33c0-4.17-2.49-5.42-6.24-4.17-3.33,1.67-6.25,5-6.25,8.34a5.7,5.7,0,0,1-5.83,5.83c-3.33,0-7.5,3.75-8.75,8.33s-5.41,8.34-8.74,8.34c-7.91,0-7.5,16.66.41,27.91,3.75,5.42,13.75,11.67,22.91,14.17,29.99,9.17,59.97-5,89.54-42.08,17.08-21.67,31.24-41.25,31.24-43.34,0-1.25,6.66-10.83,14.57-21.66,7.92-10.42,14.58-20.84,14.58-22.92s6.25-13.33,13.74-25.42c22.91-35.83,54.56-105,64.14-138.747,10.41-36.25,13.74-49.583,16.24-60,0.83-5,4.58-21.25,7.91-35.833s7.5-40,8.75-57.083c1.25-16.667,2.92-36.667,3.75-44.584,0.83-11.666-1.25-16.666-14.16-27.916-14.16-13.334-14.99-15.417-14.99-40.417,0-22.917,1.66-27.917,12.91-42.5l12.91-16.667-1.25-56.25c-0.42-30.833-2.92-64.583-5.42-75-2.08-10.416-5.41-24.166-6.66-31.25-1.67-6.666-4.17-16.25-6.25-20.833s-4.58-16.667-6.24-27.083c-1.25-10.417-5-22.5-7.92-27.084s-8.74-17.5-12.91-29.166c-4.16-11.25-9.99-24.584-12.91-29.167a109.71,109.71,0,0,1-7.91-18.75c-4.17-13.75-27.49-47.917-46.65-69.167-5.41-5.833-9.57-12.083-9.57-13.75,0-2.083-6.25-10.416-13.33-18.75-7.5-8.333-17.49-20.416-22.07-26.25-14.16-19.166-74.14-78.333-89.55-88.75a272.7,272.7,0,0,1-27.07-22.083l-12.49-12.5,18.74,3.333c18.74,2.917,73.72,29.583,89.54,43.334,4.58,3.75,15.83,12.083,24.99,17.916,18.74,11.667,61.64,53.334,87.04,84.584,21.24,25.416,42.9,60.416,61.64,99.166,5.41,11.25,12.08,24.584,14.99,30.417,2.92,5.417,6.25,13.75,7.08,18.333s2.92,10.834,5,13.75c5,7.5,13.74,33.334,13.74,40.417,0,3.333,2.92,11.667,6.25,18.333,3.33,6.25,5.41,12.917,4.17,14.584-0.84,1.666,2.08,17.5,6.66,35.416s7.5,34.584,6.66,37.5c-0.83,2.5,0,8.334,2.5,12.5,2.08,4.584,4.17,19.584,4.58,33.334C2267.21,595,2277.2,613.75,2291.36,610c14.16-3.333,62.89,17.083,90.79,38.333l24.99,19.167,12.08-12.5c6.66-6.667,19.15-15.833,27.9-19.583,8.33-4.167,22.49-10.834,31.65-15,8.75-4.167,17.91-6.667,19.99-5.417,5.42,3.333,28.32-6.667,28.32-12.5,0-2.917-2.08-7.083-4.58-9.583s-3.33-7.084-1.25-10c1.67-2.917,3.75-11.25,4.58-18.334,2.5-23.333,14.16-73.75,18.74-82.916,2.5-4.584,4.17-9.167,3.75-10-2.5-2.5,5.83-30.417,16.24-55,30.41-69.167,83.3-137.917,118.7-153.75,28.73-12.917,57.89-17.5,73.71-12.084,32.49,10.834,57.48,39.584,57.48,66.25,0,52.084-42.48,83.75-83.3,62.084-9.99-5.417-17.49-32.084-14.16-49.167,5-25.833,26.66-32.917,34.57-12.083,7.5,19.583,29.57,32.5,29.57,17.083,0-7.083-15.83-22.083-23.74-22.5-2.5,0-3.75-3.75-2.5-7.917,1.25-5.416-.83-9.583-7.08-12.916-27.49-14.584-82.88,37.5-122.44,115.833-5.83,11.667-9.58,21.667-8.33,21.667,1.67,0,0,3.333-3.33,7.5-16.66,18.75-33.74,101.25-34.15,165.416-0.42,40.417,0,41.667,8.74,40.834,23.33-2.5,34.57,44.583,17.49,72.083-10.41,17.083-14.57,18.75-6.24,2.5,3.33-6.25,7.08-17.917,8.74-25.833,2.5-12.917,1.25-15.834-9.99-24.167-7.08-5-14.16-9.167-16.24-9.167-6.67,0-12.91-18.333-11.67-33.333,0.42-7.917,0-19.583-1.24-26.25-2.5-11.25-2.92-11.25-12.08-4.583-7.92,5.416-9.58,9.583-7.5,18.333,1.67,10,.83,11.25-5.83,9.583-9.99-2.5-10.83,1.667-2.08,11.25,5.83,6.25,5.83,8.75,0,22.084-5.42,13.333-5.42,15.416-.42,15.416,3.33,0,7.5-1.666,8.75-4.166a9.8,9.8,0,0,1,7.49-4.167c2.5,0-1.25,5.417-8.33,12.083s-13.32,14.584-13.74,17.5c-2.5,15.417.83,16.25,12.08,4.167,13.33-14.583,17.07-15.833,17.07-6.667a6.4,6.4,0,0,1-6.24,6.25c-3.75,0-5,2.5-3.33,6.667,1.24,3.75,5.41,5.833,9.99,4.583,9.58-2.5,10.83,8.75,1.25,12.5-4.16,1.25-5.83,5.417-4.16,10.417,1.24,5.833-.42,9.167-6.25,10.417-10.41,2.916-10,9.583.41,12.5,9.58,2.5,10.42,5.833,3.75,12.5-6.24,6.25,8.75,40.416,19.16,44.583,5.83,2.083,5.83,3.333.42,11.667-5.42,8.75-5.42,10.416,1.66,19.166,4.17,5,9.58,9.167,12.08,9.167,7.08,0,5.41-31.667-2.08-39.583-3.75-3.334-5.83-8.75-4.58-11.667,3.33-9.167-5.83-52.5-11.66-53.75-3.34-.833-1.67-4.167,5.41-9.167,10.41-7.916,10.41-7.916,7.5-.416C2582.47,750,2607.46,840.833,2633.28,900c10.41,24.167,22.49,51.25,26.24,60.417,9.16,22.5,37.06,72.083,49.56,87.5,5.41,7.08,11.24,14.58,12.91,16.66,27.49,37.5,42.48,56.67,54.14,69.59,19.99,21.25,15.41,28.33-7.5,11.25-10.41-7.92-23.73-16.67-29.98-20-13.33-7.09-75.8-66.67-79.55-76.67-1.25-3.75-4.58-7.08-6.66-7.08-5,0-52.48-70.42-56.64-83.753-1.67-5.417-7.5-18.334-12.91-28.75a372.327,372.327,0,0,1-18.33-42.5c-4.58-12.917-11.24-24.584-14.99-25.834-3.75-1.666-5.41-5.416-3.75-12.083,1.67-5-.41-18.75-4.58-30-3.75-11.667-7.49-28.333-8.33-37.5s-2.5-25-4.16-35.417-3.33-27.083-4.17-37.5c-0.41-10.416-1.66-19.166-2.08-19.583-1.25-2.083-2.91-9.583-3.33-17.917-0.42-5.416-3.33-8.333-9.16-8.333-5,0-7.92-2.083-6.67-5a6.056,6.056,0,0,1,7.08-4.167c6.25,1.25,16.25-11.25,16.66-20.833,0-5.417-3.33-7.5-10.41-7.5-10,0-12.49,5-10.83,20,0.42,2.5-2.5,5-6.25,5-4.16,0-5.83,2.083-4.16,6.25,3.33,9.167-7.5,7.5-16.24-2.083-7.5-8.334-16.66-9.167-16.66-1.667a53.981,53.981,0,0,1-5.41,12.917c-4.59,8.333-4.17,9.166,2.08,6.666,4.16-1.666,1.66,2.5-5.83,8.334-13.33,11.666-33.74,43.333-36.65,56.25-6.67,33.75-13.33,38.333-25.82,17.5-3.75-6.667-8.75-12.5-10.42-12.5s-3.33-4.167-3.33-9.167c-0.41-5.417-2.5-13.333-5.41-18.333-10.83-18.75-43.73-51.667-53.31-53.334-3.33-.416-9.99-2.916-14.99-5.833-5.42-2.917-13.75-4.167-19.16-2.917-7.91,2.084-9.58,5.417-9.99,17.917-0.42,42.917-1.67,55-4.59,55-2.08,0-2.91-8.333-1.66-18.75,0.83-11.25-.42-21.25-3.33-25s-3.34-8.333-.84-13.333c2.09-4.167,2.92-10,2.09-12.917-1.25-2.917-.84-8.333.41-11.667,2.08-5.416,3.75-5.833,8.33-2.083,6.25,5.417,19.16,2.083,19.16-4.583,0-5.417-12.91-15.417-19.57-15.834-2.92,0-5.42,2.917-5.42,6.25,0,4.584-2.08,5-10.41,2.084-6.25-2.5-10.83-2.5-12.49,0s-1.25,4.166.83,4.166c1.66,0,0,2.084-3.75,4.584-10.83,6.25-9.16,13.333,2.92,11.25,8.74-1.667,9.57-1.25,5.83,5.416-5,9.584-7.08,10-17.08.834-9.58-8.334-18.74-4.167-28.32,12.5-5.41,9.583-5.41,11.666,2.08,20.416l8.33,9.584-8.74-7.5c-8.33-6.667-8.75-6.667-15.41.416-5.83,6.667-6.25,8.75-1.25,15.417,2.91,4.167,8.33,6.667,11.66,5,5-1.667,5.83,0,4.58,5.833-1.67,6.667,0,7.917,10.41,7.917,12.91,0,29.99-15.833,29.99-27.5a6.047,6.047,0,0,1,6.24-5.833c5.42,0,5.84,1.666.84,13.75-6.25,15-1.25,34.166,7.91,30.416,2.92-1.25,5.83,2.084,7.08,7.084,2.5,13.333.83,46.25-2.91,52.083-1.67,3.333-2.5,6.667-1.25,7.917s0.83,6.25-1.25,11.666-5,17.917-6.25,27.5c-3.33,24.167-16.24,64.584-42.48,132.917-5.83,15-11.66,30.83-13.33,35.42-8.74,22.91-50.81,103.33-69.96,132.91-12.08,18.75-22.08,36.25-22.08,38.75,0,2.92-2.91,5.42-6.24,5.42s-6.25,1.67-6.25,3.33c0,2.09-11.25,14.59-25.41,28.34-32.9,32.08-31.23,30.41-59.97,47.91a209.665,209.665,0,0,1-93.7,30.84C1899.46,1299.58,1892.8,1297.92,1875.31,1288.33Zm60.39-10c13.74-10,15.82-15.83,6.24-15.83-5.41,0-27.07,18.33-27.07,22.92S1924.45,1286.67,1935.7,1278.33Zm-45.82,2.92a2.08,2.08,0,1,0-2.08,2.08A1.963,1.963,0,0,0,1889.88,1281.25Zm22.91-8.75c12.91-8.75,12.91-13.33-.42-27.92-5.83-6.25-12.49-17.08-14.99-23.75-2.08-7.08-6.25-12.5-8.75-12.5-8.32,0-19.57,13.75-19.57,23.75,0,11.25,11.66,17.92,16.66,9.17,2.08-2.92,4.58-4.58,6.25-3.33,1.25,1.25-4.58,9.16-12.5,17.5-17.07,17.5-17.49,19.58-6.24,19.58,4.58,0,8.32-1.67,8.32-4.17,0-2.08,3.75-5.83,8.33-8.33,7.92-4.17,8.33-3.75,5.83,5.83C1892.8,1280.83,1897.8,1282.08,1912.79,1272.5Zm47.89,2.5c0-2.08-.83-4.17-1.66-4.17-1.25,0-3.33,2.09-4.58,4.17-1.25,2.5-.42,4.17,1.66,4.17A4.282,4.282,0,0,0,1960.68,1275Zm20.83-6.25c0-7.5-5.42-10.42-11.66-6.67-7.08,4.17-1.67,17.09,5.83,14.17C1979.01,1275,1981.51,1271.67,1981.51,1268.75Zm15.82-10c1.25-3.33-.41-5-3.75-3.75a11.938,11.938,0,0,0-7.08,7.08c-1.24,3.34.42,5,3.75,3.75A11.86,11.86,0,0,0,1997.33,1258.75Zm-132.43-12.92c0-2.08-2.09-5-4.59-6.66-5.83-3.34-13.74,4.58-10.41,10.41C1852.82,1254.17,1864.9,1251.25,1864.9,1245.83Zm189.07-28.33c0.84-1.67.42-5.83-1.66-8.75-4.17-7.08-12.91-2.08-9.58,5.83C2045.23,1221.25,2050.64,1222.92,2053.97,1217.5Zm-189.07-9.58c0-2.5-1.67-2.92-4.17-1.67-2.08,1.25-4.16,4.58-4.16,6.67,0,2.5,2.08,2.91,4.16,1.66A8.5,8.5,0,0,0,1864.9,1207.92Zm22.49-13.75c11.66-10.42,14.16-19.17,5.83-19.17-6.67,0-24.16,17.08-24.16,23.75C1869.06,1207.08,1875.72,1205.42,1887.39,1194.17Zm185.74,5.83c0-2.08-2.91-4.17-6.25-4.17s-6.24,2.09-6.24,4.17c0,2.5,2.91,4.17,6.24,4.17S2073.13,1202.5,2073.13,1200Zm-147.85-20.42c1.25-2.08.42-5-2.08-6.66-2.08-1.25-4.16.41-4.16,3.75C1919.04,1184.17,1921.54,1185.42,1925.28,1179.58Zm42.9-18.33c1.25-8.33-1.25-12.08-11.66-17.5-14.99-7.92-20.82-5.42-13.33,5.42a78.6,78.6,0,0,1,9.16,16.66C1957.77,1178.33,1966.51,1175.83,1968.18,1161.25Zm-30.4-1.67c-3.33-14.16-9.58-22.08-17.08-22.08-7.91,0-7.49,2.92,2.92,19.17C1934.03,1173.75,1941.94,1175.42,1937.78,1159.58Zm-23.74,0c-1.67-9.16-9.16-8.33-10.83.42-0.83,4.17,1.25,6.67,5.42,6.67S1914.87,1163.75,1914.04,1159.58Zm210.73-28.33c7.08-5.42,7.08-6.25,1.25-8.75-9.58-3.33-19.57.83-19.57,8.75S2114.36,1139.17,2124.77,1131.25Zm14.16-19.17a5.6,5.6,0,0,0-10.83,0c-0.83,2.5,1.67,4.59,5.42,4.59S2139.77,1114.58,2138.93,1112.08Zm13.33-20.83c5-9.17,1.25-10-10-1.67-4.16,2.92-6.24,7.92-4.58,10C2141.01,1105.42,2146.85,1102.08,2152.26,1091.25Zm-12.49-18.33a2.085,2.085,0,1,0-2.09,2.08A1.979,1.979,0,0,0,2139.77,1072.92Zm21.65-18.75c2.92-4.59,7.5-8.34,10.41-8.34s5.42-3.33,5.42-7.08,2.91-10,6.66-14.17c4.17-4.58,5-7.91,2.08-10-2.5-1.25-6.24,1.25-7.91,6.25s-5,8.34-7.08,7.5c-2.5-.83-4.58,2.92-5.41,8.34-0.84,5-3.75,9.16-6.67,9.16-7.08,0-15.82,10.42-12.07,13.75C2151.43,1064.58,2156.01,1062.92,2161.42,1054.17ZM2693.67,1040c0-6.25-18.33-31.25-21.24-29.17-6.25,3.75-4.17,10.84,5.41,21.25C2685.76,1040.83,2693.67,1044.58,2693.67,1040Zm-498.1-38.33c1.67-4.17.42-5.837-2.5-5-6.24,2.083-9.58,11.663-4.16,11.663C2190.99,1008.33,2194.32,1005.42,2195.57,1001.67Zm473.11-2.92c0-2.917-2.5-8.75-5.41-12.917-5.42-7.5-5.83-7.5-8.75-.416-2.5,7.5,3.75,18.753,10.41,18.753C2667.02,1004.17,2668.68,1001.67,2668.68,998.75Zm-479.77-10.417c0.83-2.916-1.25-5-5-5a6.576,6.576,0,0,0-6.66,6.667C2177.25,997.083,2186.41,995.833,2188.91,988.333Zm16.66-27.083c-2.08-4.167-6.25-6.667-8.75-5.833-7.08,2.083-8.74,14.583-2.91,22.083,4.58,5,5.83,5,10.41-1.25C2208.07,971.25,2208.48,966.667,2205.57,961.25Zm444.37,18.333c1.25-2.5-1.67-6.25-6.25-8.75-6.66-3.333-8.33-3.333-8.33,1.25C2635.36,982.5,2644.94,987.083,2649.94,979.583Zm-2.08-21.25a4.56,4.56,0,0,0-4.58-4.166c-2.09,0-2.92,2.083-1.67,4.166,1.25,2.5,3.33,4.167,4.58,4.167C2647.02,962.5,2647.86,960.833,2647.86,958.333ZM2216.4,947.5c4.16-10.417,2.91-14.167-3.75-14.167-3.33,0-6.25,1.667-6.25,3.75s-1.25,6.667-2.5,10.417c-1.66,4.167-.41,6.667,3.75,6.667C2210.98,954.167,2215.15,951.25,2216.4,947.5Zm418.96-10c0-4.583-.83-8.333-1.66-8.333s-4.58-1.25-8.33-2.5c-7.91-2.917-9.16,6.666-1.67,14.166S2635.36,947.083,2635.36,937.5Zm-437.29-8.333c0-2.084-.83-4.167-1.66-4.167-1.25,0-3.34,2.083-4.59,4.167-1.25,2.5-.41,4.166,1.67,4.166A4.279,4.279,0,0,0,2198.07,929.167Zm422.3-12.084c5.83-6.666,6.25-9.583,2.5-17.083-6.25-11.667-15.41-4.583-15.83,12.5C2606.63,927.083,2610.38,928.333,2620.37,917.083ZM2221.81,910c3.33-8.75-5.41-17.5-11.66-11.25-5.42,5.417-2.08,17.917,4.58,17.917C2217.23,916.667,2220.14,913.75,2221.81,910Zm13.74-30.417c-2.5-5-7.08-8.333-9.58-7.5-7.08,2.084-8.74,15-2.49,22.084,4.58,5.416,5.83,5.416,11.24.416C2239.3,889.583,2239.72,886.667,2235.55,879.583ZM2614.54,875c0-4.167-2.5-9.583-5.83-12.083-4.58-3.75-6.25-2.084-7.91,8.75-0.84,7.5-1.25,15.416,0,17.083C2603.71,893.75,2614.54,883.333,2614.54,875Zm-370.66-16.667c0-4.166-2.5-8.75-4.99-9.583-3.34-1.25-2.5-2.5,2.08-2.5a8.092,8.092,0,0,0,7.08-7.917c0-10.416-18.74-27.5-25.41-23.75-3.75,2.5-2.91,5,2.5,8.75,6.25,5,7.08,7.5,2.92,16.25-3.33,7.084-3.33,10.417-.42,10.417,2.5,0,2.92,2.083,1.67,4.167-3.34,5.416,5.83,17.5,10.82,14.166C2242.22,867.083,2243.88,862.5,2243.88,858.333Zm354,10.417a2.08,2.08,0,1,0-2.08,2.083A1.965,1.965,0,0,0,2597.88,868.75Zm-16.66-14.583c0-2.084-.83-4.167-1.66-4.167-1.25,0-3.33,2.083-4.58,4.167-1.25,2.5-.42,4.166,1.66,4.166A4.279,4.279,0,0,0,2581.22,854.167Zm-324.84-45c0-11.25-15.41-24.584-21.66-18.334-3.33,3.334-2.5,6.25,2.5,11.25,3.75,3.75,6.66,8.75,6.66,10.834s2.92,3.75,6.25,3.75S2256.38,813.333,2256.38,809.167Zm4.16-20c0-9.584-8.33-22.917-12.91-20.417-5.41,3.75-4.58,16.25,1.25,22.083C2255.96,797.917,2260.54,797.083,2260.54,789.167Zm4.17-31.25c0-4.167-2.92-7.917-6.25-7.917-6.25,0-8.75,12.917-3.75,17.917C2259.29,772.083,2264.71,766.667,2264.71,757.917Zm-14.16-19.584c-7.5-7.5-12.91-4.166-9.58,5,1.66,4.167,5.41,5.417,9.16,3.75C2256.38,745,2256.38,744.167,2250.55,738.333Zm164.09-7.5c9.99-23.333,10.41-29.583,2.08-22.5-12.08,10-23.74,29.584-21.24,35.417C2399.64,754.583,2405.89,750.417,2414.64,730.833Zm127.85-12.916c-7.08-7.5-9.16-3.334-4.58,9.166,2.08,5,4.16,5.417,7.08,2.5C2548.32,726.25,2547.49,722.917,2542.49,717.917Zm-144.1-2.084c4.17-5.416,7.5-11.25,7.92-13.333,0-2.083,3.33-6.25,7.49-9.167,5.42-4.166,5.83-6.25,2.08-10-5.41-5.833-15.4-1.666-11.24,4.584,1.25,2.083-2.5,7.916-8.33,12.5s-10.83,12.083-10.83,16.666C2385.48,727.5,2388.81,727.083,2398.39,715.833Zm-22.07-20.416a5.6,5.6,0,0,0-10.83,0c-0.83,2.5,1.67,4.583,5.42,4.583S2377.15,697.917,2376.32,695.417Zm11.66-8.334c4.17-7.083-5.41-15-11.24-9.166-5,5-1.67,13.75,4.58,13.75C2383.4,691.667,2386.32,689.583,2387.98,687.083Zm41.65-18.75c-2.08-5.416-4.17-5.833-7.5-2.5-2.5,2.5-3.33,7.5-1.66,11.667,2.08,5.417,4.16,5.833,7.49,2.5C2430.46,677.5,2431.29,672.5,2429.63,668.333ZM2397.98,675a4.179,4.179,0,0,0-4.17-4.167,4.478,4.478,0,0,0-4.16,4.167,4.172,4.172,0,0,0,4.16,4.167A3.939,3.939,0,0,0,2397.98,675Zm-199.91-12.5a4.17,4.17,0,0,0-4.16-4.167,4.479,4.479,0,0,0-4.17,4.167,4.174,4.174,0,0,0,4.17,4.167A3.932,3.932,0,0,0,2198.07,662.5Zm166.59,0a4.179,4.179,0,0,0-4.17-4.167,4.478,4.478,0,0,0-4.16,4.167,4.172,4.172,0,0,0,4.16,4.167A3.939,3.939,0,0,0,2364.66,662.5Zm78.3-.417a5.6,5.6,0,0,0-10.83,0c-0.84,2.5,1.66,4.584,5.41,4.584S2443.79,664.583,2442.96,662.083Zm-107.45-7.916a4.178,4.178,0,0,0-4.17-4.167,4.477,4.477,0,0,0-4.16,4.167,4.171,4.171,0,0,0,4.16,4.166A3.939,3.939,0,0,0,2335.51,654.167Zm12.49-12.5c0-4.584-2.92-8.334-6.25-8.334-6.24,0-8.74,8.75-3.33,13.75C2343.42,652.5,2348,650,2348,641.667Zm141.6,2.5c0-6.667-7.5-12.917-11.25-9.167-3.33,3.333,2.09,15,7.08,15C2487.52,650,2489.6,647.5,2489.6,644.167ZM2318.85,642.5c0-5.417-5-9.167-9.17-6.667s-0.41,10,5.42,10A3.675,3.675,0,0,0,2318.85,642.5ZM2302.19,625c0-2.083-2.92-4.167-6.66-4.167-3.34,0-5,2.084-3.75,4.167a7.912,7.912,0,0,0,6.66,4.167A3.85,3.85,0,0,0,2302.19,625Zm-39.15-14.167c1.25-3.333.42-9.583-2.08-13.75-3.75-7.083-4.17-6.666-7.91,2.917-2.09,5.833-3.34,11.667-2.09,13.75C2253.88,618.75,2260.54,617.083,2263.04,610.833Zm-19.16-8.333c0-1.25-1.66-3.333-4.16-4.583-2.08-1.25-4.17-.417-4.17,1.666a4.57,4.57,0,0,0,4.17,4.584C2242.22,604.167,2243.88,603.333,2243.88,602.5Zm8.33-14.583c0-5-8.33-10.417-11.24-7.5s2.5,11.25,7.49,11.25A3.73,3.73,0,0,0,2252.21,587.917Zm294.45-3.334c-1.67-1.25-2.92,0-2.92,2.917s1.25,4.167,2.92,2.917A5.007,5.007,0,0,0,2546.66,584.583ZM2570.81,575a18.065,18.065,0,0,0-2.5-15.417c-5-5.416-6.24-5.416-12.91,2.917-5.83,7.083-6.66,10.833-2.91,15C2559.57,585.833,2567.9,584.583,2570.81,575Zm-314.43-4.167c0-4.583-2.92-8.333-6.25-8.333-7.5,0-7.91,5-1.25,11.667S2256.38,580.417,2256.38,570.833Zm-16.66-10.416c2.5-3.334,3.33-8.334,1.66-10.834-2.08-3.75-4.58-2.916-8.74,2.5C2223.06,565.833,2228.89,573.333,2239.72,560.417Zm12.49-16.25c0-1.25-1.66-3.334-4.16-4.584-2.08-1.25-4.17-.416-4.17,1.667a4.569,4.569,0,0,0,4.17,4.583C2250.55,545.833,2252.21,545,2252.21,544.167Zm319.85-5.417c-2.08-10.417-11.66-11.667-11.66-1.667,0,5,2.5,8.75,6.66,8.75C2570.81,545.833,2572.89,542.917,2572.06,538.75Zm-346.09-20.833c-1.66-1.25-2.91,0-2.91,2.916s1.25,4.167,2.91,2.917A5.005,5.005,0,0,0,2225.97,517.917Zm354.42-6.667c1.25-9.167-.42-11.25-7.08-11.25-7.08,0-8.75,2.5-8.75,12.917,0,10,1.67,12.5,7.5,11.25C2576.23,523.333,2579.56,518.333,2580.39,511.25Zm-344.84-5c0-3.333-1.66-6.25-4.16-6.25-2.08,0-4.17,2.917-4.17,6.25s2.09,6.25,4.17,6.25C2233.89,512.5,2235.55,509.583,2235.55,506.25Zm-8.74-13.333c2.91-5.834,5-6.25,9.58-2.084,3.33,2.5,7.08,3.75,8.74,2.5,2.92-2.916-4.58-25.416-13.32-39.166-3.75-5.417-4.59-8.75-1.67-7.084,6.66,4.167,9.16-1.666,5-12.5-2.09-5.416-6.67-9.583-10.83-9.583-5.83,0-6.25-.833-2.08-3.75,7.08-4.167.41-17.083-12.5-25-11.66-7.5-14.16-2.5-4.16,8.333,7.08,7.084,7.91,10.417,3.75,16.667-3.75,6.25-3.34,8.75,3.33,13.75,4.58,3.75,5.83,6.667,3.33,6.667-9.58,0-5.83,15.833,6.25,25,6.24,5,7.91,7.916,4.16,6.666-7.08-2.083-11.66,5-11.66,18.75C2214.73,502.083,2221.39,502.5,2226.81,492.917Zm354.41-5.417a4.561,4.561,0,0,0-4.58-4.167c-2.08,0-2.91,2.084-1.66,4.167,1.25,2.5,3.33,4.167,4.58,4.167C2580.39,491.667,2581.22,490,2581.22,487.5Zm-4.16-24.583a7.926,7.926,0,0,0-4.17-6.667c-2.08-1.25-4.16.417-4.16,3.75,0,3.75,2.08,6.667,4.16,6.667A3.85,3.85,0,0,0,2577.06,462.917Zm17.91-20.417c-2.92-11.667-8.33-11.667-11.66-.833-3.34,11.25,5.83,24.583,10.82,15.416C2596.22,454.167,2596.22,447.5,2594.97,442.5Zm6.24-20.417c-1.66-9.166-9.16-8.333-10.82.417-0.84,4.167,1.24,6.667,5.41,6.667S2602.05,426.25,2601.21,422.083Zm7.92-12.5a5,5,0,0,0-5.83,0c-1.25,1.667,0,2.917,2.91,2.917S2610.38,411.25,2609.13,409.583Zm5.41-11.666c0-3.334-1.67-6.25-4.16-6.25-2.09,0-4.17,2.916-4.17,6.25s2.08,6.25,4.17,6.25C2612.87,404.167,2614.54,401.25,2614.54,397.917Zm-395.65-12.084c0-3.333-2.91-6.666-6.24-8.333-6.25-2.083-8.75,5.833-3.33,11.25C2213.9,393.75,2218.89,392.083,2218.89,385.833Zm554.74-11.25c16.66-7.5,29.57-30.416,26.66-46.666-2.92-15.417-16.25-30.417-22.91-25.834-6.66,3.75-5.41,12.5,1.67,18.75,9.99,8.334,7.49,20-8.33,36.25C2750.73,377.917,2751.56,384.583,2773.63,374.583Zm-143.68-6.666c-1.67-1.25-2.92,0-2.92,2.916s1.25,4.167,2.92,2.917A5.005,5.005,0,0,0,2629.95,367.917Zm-431.88-.834c0-2.083-2.91-4.583-6.25-6.25-6.24-2.083-8.33,2.084-3.33,7.084C2192.24,372.083,2198.07,371.667,2198.07,367.083Zm8.33-10.833a6.4,6.4,0,0,0-6.25-6.25c-10.82,0-7.49,8.333,5.42,12.083C2205.98,362.5,2206.4,359.583,2206.4,356.25Zm441.46-8.75c0-3.333-1.67-5-4.17-3.75-2.08,1.25-4.16,5.417-4.16,8.75s2.08,5,4.16,3.75C2646.19,355,2647.86,350.833,2647.86,347.5Zm116.61,0.833c0-6.666-11.25-12.083-17.08-8.333-5.41,3.333,3.75,14.167,11.25,14.167A5.7,5.7,0,0,0,2764.47,348.333Zm-576.39-33.75c-1.25-3.333-3.75-6.25-6.25-6.25-5.83,0-8.33,22.084-3.33,28.75,3.75,4.584,5.41,3.334,8.33-5.416C2188.91,325.417,2189.33,317.917,2188.08,314.583Zm478.1,12.5a48.231,48.231,0,0,1,10.83-12.916c3.33-2.917,5-6.667,2.92-8.334-1.67-1.666-7.08.834-12.5,5.834s-12.08,9.166-14.57,9.166c-5.42,0-6.67,9.167-2.09,14.167C2654.94,339.167,2661.18,335.833,2666.18,327.083Zm75.38,2.084c0-9.167-12.07-7.5-13.74,1.25-1.25,5.833.42,7.5,6.25,6.25C2738.23,335.833,2741.56,332.5,2741.56,329.167ZM2171,304.583c2.5-4.166-9.99-18.75-13.33-15.416-2.91,2.916,2.92,19.166,7.08,19.166C2166.84,308.333,2169.33,306.667,2171,304.583Zm630.95-2.5c0-6.666-11.24-13.333-15.41-8.75-2.91,2.917,6.67,15,11.66,15C2800.29,308.333,2801.95,305.417,2801.95,302.083Zm-98.29-8.333c3.34-3.333,7.92-6.25,10.42-6.25,7.08,0,8.74-7.083,2.91-12.083-4.58-3.75-8.74-2.5-18.74,6.25-7.08,5.833-12.91,12.5-12.91,14.583C2685.34,302.083,2696.58,300.833,2703.66,293.75Zm60.81-5.417c0-2.083-3.75-7.083-7.91-10.833-6.25-5.417-8.33-5.833-9.58-1.667-1.25,2.917.83,7.5,4.58,10.417C2759.47,292.5,2764.47,292.917,2764.47,288.333ZM2738.65,267.5c0.83-2.917-2.5-5-7.08-5-8.75,0-11.25,4.583-5.83,10C2729.49,276.25,2736.57,273.333,2738.65,267.5Zm-596.39-28.75c-4.16-4.167-7.91,2.083-4.16,7.5,2.5,4.583,3.33,4.583,5,0C2143.93,243.333,2143.51,240,2142.26,238.75Zm-14.16-10.417c-2.91-2.916-4.99-3.333-4.99-.833,0,5.833,4.99,10.833,7.91,7.917C2131.85,234.167,2130.6,230.833,2128.1,228.333Zm-24.98-22.083c0-2.083-2.09-4.583-4.58-5.417s-4.59,1.667-4.59,5.417,2.09,6.25,4.59,5.417S2103.12,208.333,2103.12,206.25Zm-43.73-34.167c-1.67-1.25-2.92,0-2.92,2.917s1.25,4.167,2.92,2.917A5.007,5.007,0,0,0,2059.39,172.083Zm6.24-18.75c-2.91-2.916-4.99-3.333-4.99-.833,0,5.833,4.99,10.833,7.91,7.917C2069.38,159.167,2068.13,155.833,2065.63,153.333Zm-13.32-7.083a7.926,7.926,0,0,0-4.17-6.667c-2.08-1.25-4.16.417-4.16,3.75,0,3.75,2.08,6.667,4.16,6.667A3.85,3.85,0,0,0,2052.31,146.25Zm-29.16-25.417c0-2.083-3.74-5.833-8.33-8.333-9.16-5-11.24-.417-3.33,7.5C2017.32,125.833,2023.15,126.667,2023.15,120.833ZM3818.14,1274.58c-27.91-7.5-91.63-46.25-114.53-69.58-38.32-38.75-117.45-165.83-136.6-219.583-17.5-49.584-20.83-60-23.74-77.084-2.09-10.416-7.5-39.166-12.08-64.166-9.16-47.917-10.83-64.584-15.41-135.834-2.5-46.25-7.5-56.666-23.32-51.666-10.41,3.333-9.58-5.417,1.25-11.25,6.24-3.334,7.91-3.334,6.24,0-1.66,2.916.42,4.583,5.83,4.583,10,0,15.83-10.833,9.17-17.5-7.08-7.083-29.99-7.5-29.99-.833,0,7.083-2.08,7.083-12.49.833-6.25-3.75-9.17-4.167-12.91-.417-6.25,6.25-.84,14.167,7.91,10.834,5.83-2.084,6.25-1.667,2.5,3.333-2.5,3.333-5.83,11.25-7.5,17.5a22.74,22.74,0,0,1-13.74,15.833c-10.41,3.75-49.98,34.167-56.23,43.334-1.66,2.083-4.58,6.666-6.66,9.583-5,7.083-14.16,2.083-39.98-22.083-24.99-23.75-62.89-45-78.3-44.584-14.99.417-19.99,6.25-19.99,25,0,26.25-16.24,98.334-34.15,152.917-15.82,47.5-81.21,173.75-106.2,204.17-5.41,7.08-24.98,31.25-43.73,53.75-41.23,51.25-82.46,85.83-82.46,69.16,0-2.5,11.66-17.91,26.24-34.58,33.73-38.33,57.89-74.58,67.47-99.58,4.16-10.84,9.58-22.09,12.91-24.59,2.91-2.5,6.66-10.41,7.91-17.5a135.526,135.526,0,0,1,10.41-27.916c12.5-23.334,19.58-42.084,27.07-68.75,3.75-13.75,8.33-26.667,10-29.167,1.67-2.083,5.41-12.5,8.33-22.917s7.5-24.166,9.58-31.25c2.08-6.666,5-20.833,6.24-31.25s4.59-25,7.92-32.5c5.41-12.916,5-14.166-6.25-24.166-6.66-5.834-14.99-17.917-19.16-27.084-6.66-14.166-6.66-18.75-2.5-33.333,2.92-9.167,11.25-23.75,18.75-32.083,21.65-24.167,22.48-27.5,18.32-77.917-3.75-50.417-16.24-105.833-27.9-122.5-3.75-5.833-10.41-18.75-15-28.75-4.16-10-9.57-19.167-12.07-20.833s-9.58-10-15.41-18.75c-17.49-25.417-50.4-61.25-55.81-61.25-2.92,0-7.5-2.917-10.41-6.25s-8.33-6.25-12.5-6.25a17.1,17.1,0,0,1-11.66-5.417c-4.99-5.833-32.48-4.583-36.65,1.667-3.33,5.833-9.99,4.166-9.99-2.5,0-3.75-2.5-5-6.25-3.75-8.33,3.333-7.91,14.166.42,14.166,3.33,0,5,2.084,3.75,4.167-1.67,2.917-5.42,2.917-10,0-8.33-4.167-17.07,1.667-17.07,11.25,0,4.583,2.08,4.583,8.33,1.25,7.49-4.167,7.91-2.917,7.08,11.25-0.42,12.083.83,15.833,6.66,17.083,8.33,1.667,10.41-13.75,2.08-17.083-4.16-1.667-4.16-2.5-.42-2.5,2.5-.417,6.25,1.25,7.5,3.75,5,7.917,15.41,4.583,12.5-3.75-2.92-9.583,4.58-12.5,21.23-8.333,14.58,4.166,24.99,20.416,22.91,36.666-1.25,11.25-19.16,38.334-24.57,37.084-1.67-.417-6.25.833-10.41,2.916-14.16,6.25-41.65-8.75-53.73-29.166-21.65-35.834-13.74-73.75,19.99-97.084,13.33-9.166,21.24-11.25,43.32-11.25,54.97-.833,107.45,31.667,162,100,29.99,38.334,70.39,162.5,71.64,222.084,0.41,30.833,1.66,35,9.16,37.916,8.33,3.334,8.33,3.334-.42,5.417-6.25,1.667-9.16,5.833-9.16,12.917,0,7.5-3.75,12.083-14.58,17.083-7.91,3.75-14.57,9.583-14.57,12.5,0,3.333-4.17,6.667-9.17,7.917-9.16,2.5-9.16,2.5-.83,12.083,7.91,9.583,7.91,9.583-.42,3.333-12.91-9.583-14.57-13.75-12.07-27.5,3.33-17.083-8.75-28.333-17.5-16.25-7.91,10.417-7.49,15,1.67,11.667,5.83-2.083,6.25-1.25,2.08,3.333-7.49,7.5-6.66,20,.84,22.917,7.91,3.333,7.91,11.667,0,18.333-4.59,3.75-5,6.667-.84,12.917,7.08,11.25,10.83,10,31.65-8.75,11.67-10.417,17.08-18.75,15.41-22.917-1.25-3.333-.41-6.25,1.67-6.25a4.17,4.17,0,0,1,4.16,4.167c0,2.5,2.92,4.167,6.67,4.167,5,0,6.25-2.5,4.16-10.417-2.5-9.167-1.25-10.417,9.58-10.417,6.67,0,14.16-2.916,17.08-6.25,7.08-8.75,12.07-7.916,9.58,1.667-2.5,10.417,16.24,14.167,25.4,5.417,5.41-5.834,7.08-5.417,14.58,3.75,6.66,7.916,9.16,8.75,13.32,5,4.17-4.167,2.5-8.334-9.16-19.584-17.07-17.083-38.73-25-34.57-12.5,2.09,5.834-.83,4.584-9.99-4.166-7.5-7.084-13.33-13.75-13.33-15.834,0-9.583,29.57-1.25,69.14,19.584l43.73,22.916,15.4-12.083c17.5-13.75,70.8-30,99.54-30.833,10,0,19.58-2.084,21.24-4.584s3.33-18.75,3.33-35.833c0.42-17.083,2.92-41.667,5.42-54.167s6.66-35,8.74-50c2.5-15,6.25-32.5,8.33-39.583,7.5-25,17.49-58.333,18.74-62.5,2.09-9.583,52.89-115.417,65.81-137.5,11.66-19.583,84.12-93.75,91.62-93.75,2.08,0,9.58-4.583,16.66-10,22.9-17.083,127.02-69.167,138.68-69.167,0.83,0,1.67,3.333,1.67,7.5,0,4.583-9.58,12.917-26.66,22.5-36.23,21.25-87.87,60.834-113.28,87.5-34.98,36.667-70.8,95.834-95.78,156.667-13.33,33.75-33.32,102.917-37.9,132.083a192.914,192.914,0,0,1-5.83,27.5c-2.09,7.917-5.42,32.5-7.92,54.167-4.99,45.833-6.24,52.917-8.74,55.417-2.92,2.916-1.25-47.5,2.08-65,1.67-9.167,1.25-15.834-.83-15.834-7.08,0-14.16,12.5-12.08,20.834,1.67,7.083.83,7.5-5.83,3.75-9.16-4.584-16.24-1.667-16.24,6.666,0,8.75,7.91,11.667,14.57,6.25,3.33-2.916,6.25-3.333,6.25-1.25,0,5.417-15.83,22.084-20.82,22.084-6.67,0-4.58,12.5,2.08,15,3.33,1.666,6.25,5,6.25,8.333,0,7.917,15.82,23.333,20.82,20.417,2.5-1.667,4.16.416,4.16,3.75,0,3.75,7.08,14.583,15.41,23.75,14.58,16.25,15.83,19.166,15.83,43.333,0,23.75-1.25,27.083-11.66,35.417-12.08,9.583-12.08,9.583-9.58,45.833,2.5,32.083,9.16,83.333,17.07,129.167,1.67,10,1.25,12.5-1.24,8.333-2.5-3.333-5.42-14.583-6.67-24.583-2.91-22.084-4.58-24.167-12.91-17.084s-7.91,10.417,3.33,20.834c8.75,8.333,8.75,9.166,2.09,14.166-10.42,7.917-10,23.334.83,23.334,4.58,0,7.91,2.083,7.08,4.583-0.42,2.5,1.66,5.833,5,7.083,4.16,1.25,5.41-.416,3.33-7.083-1.25-4.583-.42-9.583,1.25-10.833,2.08-1.25,5.41,7.083,7.91,17.916,18.74,88.337,74.13,191.247,135.77,253.337,15.41,15.83,54.56,31.25,84.13,33.75,18.74,1.66,22.9.83,34.56-10,24.57-21.67,32.07-49.17,17.91-64.59-6.25-7.08-6.25-7.91,1.25-13.75,7.08-5,7.5-6.25,1.25-12.5-8.75-8.75-24.57-11.66-24.57-4.16,0,2.91,2.08,6.25,4.58,7.08s-5,11.25-17.49,23.33c-15.83,15.42-19.99,21.67-14.58,21.67,6.66,0,6.66.83,2.08,6.67-4.16,5.41-4.16,7.08.84,10.41,4.16,2.92,1.66,3.75-8.75,2.92-12.08-1.25-15.83-3.75-22.07-16.25-6.25-13.33-6.67-16.67-1.25-29.17,7.49-17.5,16.66-26.25,37.06-35,27.91-11.66,42.48-8.75,64.56,13.75,25.82,25.42,34.15,44.17,34.15,74.59,0,32.5-13.33,51.66-45.81,66.66C3881.86,1276.67,3836.04,1279.58,3818.14,1274.58Zm71.21-40.41c-5.83-2.09-24.99,12.5-25.4,19.16,0,2.5-1.67,5-4.17,5-2.08,0-4.16,2.92-4.16,6.67q0,6.255,18.74-11.25C3884.77,1243.75,3891.43,1235,3889.35,1234.17Zm27.49,15c12.91-13.75,22.49-36.67,14.99-36.67-2.08,0-7.08,3.33-10.83,7.5-34.98,37.08-38.31,42.5-24.57,42.5C3900.6,1262.5,3909.76,1256.25,3916.84,1249.17Zm-102.87,1.66c0-5.41-5-9.16-9.16-6.66s-0.42,10,5.41,10A3.672,3.672,0,0,0,3813.97,1250.83Zm-17.07-10.41c5.41-6.67,2.08-11.25-8.75-11.25-7.5,0-10.41,8.33-4.58,13.75C3787.73,1247.08,3791.48,1246.25,3796.9,1240.42Zm37.06-1.67c0.84-3.33-2.5-5.42-9.16-5.42-7.91,0-10,1.67-7.91,6.25C3819.39,1247.08,3831.05,1246.25,3833.96,1238.75Zm29.99-1.25c0-2.08-2.92-4.17-6.25-4.17s-6.25,2.09-6.25,4.17c0,2.5,2.92,4.17,6.25,4.17S3863.95,1240,3863.95,1237.5Zm62.88-39.17c3.75-5.83,3.34-7.08-1.24-5.83-2.92.83-7.08,5.83-9.58,10.83-2.09,5-7.08,9.17-10.83,9.17-9.58,0-12.5,4.58-7.08,11.67,4.16,5,6.66,4.16,14.99-5.84C3918.09,1211.67,3924.75,1202.92,3926.83,1198.33Zm-150.34,25c0-1.25-1.67-3.33-4.17-4.58-2.08-1.25-4.16-.42-4.16,1.67a4.557,4.557,0,0,0,4.16,4.58C3774.82,1225,3776.49,1224.17,3776.49,1223.33Zm-39.15-22.08c-4.16-4.17-7.91,2.08-4.16,7.5,2.5,4.58,3.33,4.58,4.99,0C3739.01,1205.83,3738.59,1202.5,3737.34,1201.25Zm159.93,7.08a4.175,4.175,0,0,0-4.17-4.16,4.474,4.474,0,0,0-4.16,4.16,4.175,4.175,0,0,0,4.16,4.17A3.942,3.942,0,0,0,3897.27,1208.33Zm16.65-19.16c0-3.75-2.08-5.84-4.99-5-7.5,2.5-8.75,11.66-1.67,11.66A6.57,6.57,0,0,0,3913.92,1189.17Zm-191.57-3.75c0-3.34-1.67-6.25-3.75-6.25-5.41,0-9.16,6.66-5.83,10C3717.35,1193.75,3722.35,1191.67,3722.35,1185.42Zm102.87-5c-1.67-1.25-2.92,0-2.92,2.91s1.25,4.17,2.92,2.92A5,5,0,0,0,3825.22,1180.42Zm103.28-12.09c0-4.16-3.33-8.33-7.08-9.16-7.5-1.25-10.83,11.25-4.58,17.5C3921.84,1181.25,3928.5,1176.67,3928.5,1168.33Zm-221.98.42c0-2.08-2.08-4.58-4.58-5.42s-4.58,1.67-4.58,5.42,2.08,6.25,4.58,5.42S3706.52,1170.83,3706.52,1168.75Zm123.28-9.58c0.83-2.92-1.25-5-5-5a6.57,6.57,0,0,0-6.66,6.66C3818.14,1167.92,3827.3,1166.67,3829.8,1159.17Zm-136.6-4.59c0-4.58-12.08-14.58-14.58-12.08-4.17,3.75,2.91,15.83,8.74,15.83C3690.7,1158.33,3693.2,1156.67,3693.2,1154.58Zm160.34-10.41c10.41-8.34,11.66-10.84,6.66-16.67s-6.66-5.42-17.91,5.42c-7.08,6.66-11.24,14.16-9.58,16.66C3836.46,1156.25,3839.38,1155.42,3853.54,1144.17Zm58.3,5.83c1.25-2.08-.41-4.17-3.75-4.17-3.74,0-6.66,2.09-6.66,4.17a3.852,3.852,0,0,0,3.75,4.17A7.915,7.915,0,0,0,3911.84,1150Zm-239.47-20.83a4.168,4.168,0,0,0-4.16-4.17,4.484,4.484,0,0,0-4.17,4.17,4.174,4.174,0,0,0,4.17,4.16A3.926,3.926,0,0,0,3672.37,1129.17Zm12.5-5c-0.42-7.5-10.42-20-16.25-20-6.66,0-5.83,8.75,2.5,17.5C3679.04,1130.42,3684.87,1131.25,3684.87,1124.17Zm-24.99-27.5c0-2.09-2.5-6.67-5.42-11.25-4.16-5.42-6.66-6.25-8.74-2.5-1.67,2.5-.83,7.5,1.66,10.83C3652.8,1100.42,3659.88,1102.08,3659.88,1096.67ZM3635.72,1070c-2.5-2.5-6.24-3.33-7.91-1.67s-0.42,4.59,2.92,6.67,7.08,2.92,7.91,1.67C3639.89,1075.83,3638.22,1072.5,3635.72,1070Zm7.5-13.75a2.085,2.085,0,1,0-2.08,2.08A1.963,1.963,0,0,0,3643.22,1056.25Zm-4.17-16.25c0-10.83-9.99-21.25-16.65-17.08-6.25,3.75-5,10.83,2.91,19.58Q3639.05,1058.13,3639.05,1040Zm-17.07-22.92c6.66-4.16,2.91-25.413-4.17-25.413-2.49,0-3.74,3.75-2.49,7.916,1.25,5.417,0,7.5-3.34,6.247-7.49-2.91-12.49,6.67-5.83,11.25C3613.23,1021.67,3614.9,1021.67,3621.98,1017.08Zm-29.99-28.33c-1.66-1.25-2.91,0-2.91,2.917s1.25,4.166,2.91,2.916A5.005,5.005,0,0,0,3591.99,988.75Zm24.16-5c2.91-5-7.08-37.917-11.25-37.917-1.66,0-2.08,2.5-.83,5.834s0,10-2.5,15c-3.75,6.666-3.75,10.416.42,15C3607.4,988.333,3612.4,989.167,3616.15,983.75Zm-464.78-27.917c0.42-4.166,3.75-10.833,7.08-14.583,6.25-7.083,3.75-12.083-5.83-12.083-3.75,0-5.42,2.916-3.75,8.333,1.67,6.25,0,8.333-5.83,8.333-5,0-7.91,2.917-7.91,7.5C3135.13,968.75,3148.45,970.833,3151.37,955.833Zm448.54,6.25c3.33-5.833-8.75-17.916-14.58-14.583-3.33,2.083-3.33,5.417-.42,11.25C3589.91,967.5,3595.33,969.167,3599.91,962.083Zm-23.33-26.25c0-1.25-2.08-3.333-4.99-5s-3.34-1.25-1.67,1.667C3572.84,937.5,3576.58,939.167,3576.58,935.833ZM3176.77,897.5c0-3.333-2.08-5-4.16-3.75-2.5,1.667-3.33,4.583-2.08,6.667C3174.27,906.25,3176.77,905,3176.77,897.5Zm397.73-1.667c-1.25-2.083-4.16-4.166-6.66-4.166-2.08,0-3.75,2.083-3.75,4.166,0,2.5,2.92,4.167,6.66,4.167C3574.09,900,3575.75,898.333,3574.5,895.833Zm-383.98-16.666c2.91-10.834-8.75-20.834-14.16-12.084-4.17,7.084-4.58,13.75-.84,17.5C3180.94,890,3188.43,887.5,3190.52,879.167Zm387.73-16.25c1.25-1.667-1.25-6.667-5.41-10.417-8.75-7.917-14.58-3.333-10.42,7.5C3565.34,867.083,3574.5,869.167,3578.25,862.917Zm-377.74-13.334c0.84-4.583,4.17-13.75,7.5-20.416s6.25-15.417,6.25-20c0-4.167,2.08-9.584,4.58-12.084,5.41-5.416-3.75-22.083-12.08-22.083-4.17,0-5,4.167-2.92,16.667,2.09,13.333,1.67,16.666-3.74,16.666-9.58,0-10.83,5.834-4.59,18.334,5.42,10.416,5.42,11.25,0,9.166-9.99-3.75-15.82,12.084-7.91,20.417C3195.1,863.75,3198.43,862.083,3200.51,849.583Zm386.9-10.833c-1.25-6.667-3.33-29.583-5-51.25s-4.99-40.833-7.49-42.5c-6.25-4.167-14.99,8.333-11.66,16.667,2.08,6.25,1.66,6.25-5,1.25-5.41-4.584-8.33-4.584-11.66-1.25-8.75,8.75,2.5,15.833,15.41,10,11.66-5.417,14.57.416,3.33,7.083-6.25,3.333-6.66,5.833-2.92,11.667,2.92,4.166,8.33,7.083,12.5,6.25,6.25-1.25,5.83.833-3.33,9.583-14.16,12.917-14.58,17.917-2.09,22.917,5,2.083,7.5,3.75,5.83,3.75-4.58.416,5,17.083,10,17.083C3587.83,850,3588.66,845,3587.41,838.75Zm-31.65-38.333a7.936,7.936,0,0,0-4.16-6.667c-2.09-1.25-4.17.417-4.17,3.75,0,3.75,2.08,6.667,4.17,6.667A3.847,3.847,0,0,0,3555.76,800.417Zm-329.01-35.834c0-6.666-11.24-13.333-15.41-9.166-1.25,1.666-1.25,5.416,0,9.166C3214.67,772.917,3226.75,772.917,3226.75,764.583Zm5.83-17.083c2.92-7.5,3.33-26.667.42-26.667-5,0-22.91,10-22.91,13.334,0,3.75,13.33,19.166,17.08,19.583C3228.83,754.167,3231.33,751.25,3232.58,747.5Zm355.67-30c10.41-7.917,14.99-25,10.41-37.083-2.09-4.584-10.41-16.25-18.74-26.25-13.75-15.834-15.83-17.084-21.66-11.25-9.16,9.166-8.33,12.5,2.08,9.166,8.75-2.916,8.75-2.5-.83,10-5,7.084-12.08,12.917-14.99,12.917-7.08,0-6.67,4.167,1.66,13.333,6.25,7.084,6.25,7.917,0,15s-6.25,7.917.83,14.167C3561.59,730,3571.59,730,3588.25,717.5Zm-366.08-6.667c13.74-14.583,9.16-22.5-5-8.333-11.24,11.25-14.16,18.333-7.91,18.333C3211.34,720.833,3217.17,716.25,3222.17,710.833Zm170.75-2.5,6.66-10-11.66,7.5c-6.24,4.167-11.24,9.584-11.24,11.667C3376.68,724.167,3385.84,719.167,3392.92,708.333Zm-9.99-7.083c12.07-13.75,13.32-25,3.33-27.5-21.24-5.833-30.4-6.667-30.4-3.333,0,5,12.07,9.583,17.07,6.25,6.66-4.167,3.75,5-4.58,15-8.75,10.416-10,13.75-5.41,17.916C3367.93,714.583,3372.93,712.5,3382.93,701.25Zm-23.74-15c1.66-8.75-15-17.917-21.24-11.667-2.92,2.917-2.08,6.667,3.33,12.917C3350.02,697.083,3357.1,696.667,3359.19,686.25Zm175.75,7.5a2.085,2.085,0,1,0-2.09,2.083A1.973,1.973,0,0,0,3534.94,693.75Zm-360.25-5.833c1.25-2.084-.83-7.084-4.58-10.834-9.16-8.75-18.32-1.666-9.99,8.334C3165.95,692.5,3170.94,693.333,3174.69,687.917Zm256.55-8.75c2.08,0,3.74-3.75,3.74-8.334,0-11.666-5.83-10.416-14.57,2.917-6.67,10-6.67,10.833,0,8.333C3424.16,680.417,3429.15,679.167,3431.24,679.167Zm-22.91-6.25c7.08-6.667,4.58-14.584-4.58-14.584-7.5,0-11.66,7.084-8.75,14.584C3397.92,680.833,3400.83,680.833,3408.33,672.917Zm-95.37-5a5,5,0,0,0-5.83,0c-1.25,1.666,0,2.916,2.91,2.916S3314.21,669.583,3312.96,667.917Zm230.31-3.334c4.16-5,4.16-6.25-1.67-6.25a6.5,6.5,0,0,0-6.66,6.25c0,3.334.83,6.25,1.66,6.25S3540.35,667.917,3543.27,664.583Zm-120.78-10.416c0-8.75-6.25-11.25-10.41-4.167-2.92,5,.83,12.5,6.66,12.5C3420.82,662.5,3422.49,658.75,3422.49,654.167Zm31.24-6.25c0-9.167-12.91-13.75-19.99-6.667-2.92,2.917-2.5,6.25,1.24,10.833C3442.06,660.833,3453.73,658.333,3453.73,647.917Zm-239.89-1.667c2.91-2.083,3.75-4.583,1.67-5.833-1.67-1.25-7.08.416-11.67,3.75C3195.1,650.833,3203.84,652.5,3213.84,646.25Zm334.01-5c6.66-4.583,12.08-11.25,12.08-14.583,0-9.167-8.75-7.084-11.25,2.916-1.67,6.667-4.58,7.917-12.08,6.25-7.91-2.083-9.99-.833-9.99,5.834C3526.61,652.5,3532.44,652.083,3547.85,641.25Zm-313.19-3.333c5.42-3.75,7.5-29.584,2.5-37.5-4.16-6.667-10.41-5.417-13.33,2.916-1.66,3.75-5.83,9.584-9.16,12.084-4.58,3.75-5.41,6.25-2.08,8.333,2.5,2.083,5.41,6.667,7.08,10.833C3222.59,642.5,3225.92,643.333,3234.66,637.917Zm313.19-22.5c-0.42-5-6.25-3.75-7.92,1.666-1.24,2.5.42,4.167,3.34,3.334C3545.77,619.167,3547.85,617.083,3547.85,615.417ZM3220.5,587.5a8.336,8.336,0,0,0-4.99-7.083c-3.34-1.25-5.42,1.666-5.42,7.083s2.08,8.333,5.42,7.5C3218,593.75,3220.5,590.417,3220.5,587.5Zm9.17-25.833c-0.42-12.5-2.92-18.334-7.5-19.167-9.16-1.667-14.16,12.083-6.66,17.917,2.91,2.083,6.66,7.5,8.32,11.666C3228.42,584.167,3230.91,580,3229.67,561.667Zm-18.33-22.5c3.33-3.75-4.58-18.334-9.58-18.334-2.5,0-4.16,3.334-4.16,7.5C3197.6,539.583,3205.09,545.417,3211.34,539.167Zm13.33-18.334c-1.67-14.166-5-20.833-10.83-20.833-7.5,0-8.75,12.5-2.08,22.917C3220.92,537.083,3226.75,536.25,3224.67,520.833Zm355.25-15.416c0.83-5-1.67-9.584-5.42-11.25-13.33-5-19.99,7.083-9.58,17.5C3572,518.75,3578.25,515.833,3579.92,505.417Zm-376.08-9.167c2.92-5-4.99-10-10.41-6.667-4.58,2.917-1.66,10.417,4.17,10.417C3199.68,500,3202.18,498.333,3203.84,496.25Zm382.32-10.417c2.5-6.666-.83-11.666-5.83-8.333-5,2.917-4.58,14.167,0,14.167C3582.41,491.667,3584.91,489.167,3586.16,485.833Zm-371.9-9.166a6.056,6.056,0,0,0-6.25-5.834c-6.25,0-8.75,8.75-3.75,13.75C3208.43,488.333,3214.26,483.75,3214.26,476.667Zm376.9-6.25c2.5-2.917,5.41-32.5,3.33-34.584-4.58-4.166-18.74,14.167-16.24,20.417,1.67,4.583.42,6.25-4.58,5.417a7.572,7.572,0,0,0-8.75,5.833c-1.25,6.25.84,7.083,11.25,6.25C3583.25,472.917,3589.91,471.25,3591.16,470.417ZM3201.76,457.5a22.5,22.5,0,0,0-3.75-10.833c-2.5-4.584-4.58-4.167-10.41,1.25-3.75,3.75-5.83,8.75-4.58,10.833C3186.77,464.583,3201.76,463.333,3201.76,457.5Zm-5.83-30.833c-2.91-10.417-11.66-22.5-16.66-22.5s-2.5,12.916,4.17,22.916C3192.6,440.833,3199.26,440.417,3195.93,426.667Zm376.49,4.583a6.411,6.411,0,0,0-6.25-6.25c-6.66,0-8.33,5-3.33,9.583C3567.42,439.583,3572.42,437.917,3572.42,431.25Zm29.99-19.167c3.74-7.5,7.91-18.75,9.16-24.583,0.83-5.833,3.75-15.417,5.83-21.25,5.41-13.75-.83-22.083-12.5-15.833-8.74,4.583-9.57,12.916-2.49,24.583,4.16,6.667,3.74,9.583-4.17,17.917-5,5.416-7.91,11.25-6.25,12.5,1.25,1.666-1.25,2.916-6.24,2.916-10,0-12.08,7.917-4.17,15.834C3589.08,431.667,3594.49,428.333,3602.41,412.083Zm-427.3-13.75c7.91-7.916,7.49-12.5-2.5-21.25-7.91-7.083-8.33-7.083-8.33.417,0,4.167-1.25,12.083-2.5,17.5C3158.87,405.417,3165.95,407.5,3175.11,398.333ZM3595.74,382.5c1.67-2.5-.41-7.083-5-10.417-6.24-4.583-7.91-4.583-11.24.834C3573.25,384.583,3588.66,394.167,3595.74,382.5Zm-576.39-14.583c7.08-6.25,10.41-17.917,5-17.917-3.34,0-17.91,17.917-18.33,22.083C3006.02,377.083,3011.02,375.417,3019.35,367.917Zm-26.24-5c5.41-4.167,8.75-9.584,7.08-12.5-5.41-8.334-14.16-5-20.82,7.916C2972.29,372.917,2977.7,375,2993.11,362.917Zm164.92-5c0-2.917-3.33-6.25-7.08-7.084-7.49-1.25-10.41,7.5-4.58,13.334C3150.54,368.333,3158.03,364.583,3158.03,357.917Zm-199.07-10.834c-1.67-1.25-2.91,0-2.91,2.917s1.24,4.167,2.91,2.917A5.007,5.007,0,0,0,2958.96,347.083Zm180.33-1.25c0-2.083-2.91-4.166-6.66-4.166-3.33,0-5,2.083-3.75,4.166a7.912,7.912,0,0,0,6.66,4.167A3.844,3.844,0,0,0,3139.29,345.833Zm-123.69-5.416c1.25-3.334.42-8.334-1.25-11.25-2.91-4.584-4.58-4.584-9.99-.417-3.75,3.333-6.67,8.333-6.67,11.25C2997.69,347.5,3012.68,347.5,3015.6,340.417Zm609.71,2.5a5,5,0,0,0-5.83,0c-1.25,1.666,0,2.916,2.92,2.916S3626.56,344.583,3625.31,342.917Zm-498.51-9.584c0-2.083-2.92-4.166-6.25-4.166s-6.25,2.083-6.25,4.166c0,2.5,2.92,4.167,6.25,4.167S3126.8,335.833,3126.8,333.333Zm16.66,2.084a2.085,2.085,0,1,0-2.09,2.083A1.974,1.974,0,0,0,3143.46,335.417Zm477.27-18.334c-3.75-5.833-13.74-5.833-17.08-.416-1.66,2.5-.41,7.5,2.5,10.833,4.58,5.417,5.83,5.417,11.25,0C3620.73,324.167,3621.98,319.583,3620.73,317.083Zm-513.92,5.834c0-2.084-2.09-4.584-4.58-5.417s-4.59,1.667-4.59,5.417,2.09,6.25,4.59,5.416S3106.81,325,3106.81,322.917Zm17.91-8.75c-6.67-5.834-17.91-15-24.99-20.834-16.66-13.75-28.74-13.333-13.75.417,6.25,5.833,12.91,10.417,15.41,10.417a6.011,6.011,0,0,1,5.42,3.333c2.5,5.833,25.4,21.667,27.9,19.167C3135.96,325.417,3131.8,319.583,3124.72,314.167Zm518.5-15c0-7.917-3.33-9.167-14.16-5-7.91,2.916-8.75,14.583-1.67,21.666,4.17,4.167,6.25,3.75,10.42-2.083C3640.72,310,3643.22,303.333,3643.22,299.167Zm-557.65,7.916c-5.42-5.416-10.83-1.25-6.67,5a5.336,5.336,0,0,0,7.08,2.084C3088.48,312.5,3088.48,310,3085.57,307.083Zm565.98-23.75a4.178,4.178,0,0,0-4.17-4.166,4.477,4.477,0,0,0-4.16,4.166,4.172,4.172,0,0,0,4.16,4.167A3.939,3.939,0,0,0,3651.55,283.333ZM3008.1,275c1.25-2.083.42-4.167-1.66-4.167a4.561,4.561,0,0,0-4.58,4.167c0,2.5.83,4.167,1.66,4.167C3004.77,279.167,3006.85,277.5,3008.1,275Zm-12.49-8.333c1.25-2.084,1.67-4.167.42-4.167s-3.34,2.083-4.58,4.167c-1.25,2.5-1.67,4.166-.42,4.166S2994.36,269.167,2995.61,266.667Zm650.94-3.334c0.83-2.916-.83-4.166-5-2.5-3.74,1.25-6.66,4.584-6.66,6.667C3634.89,272.917,3644.47,269.583,3646.55,263.333Zm19.16-7.5c3.75-9.166,3.33-10-3.75-10-3.33,0-6.25,3.75-6.25,8.334C3655.71,264.167,3661.96,265.417,3665.71,255.833Zm10.83-37.083a2.085,2.085,0,1,0-2.09,2.083A1.973,1.973,0,0,0,3676.54,218.75Zm18.32-8.75c4.17-10.833,2.92-13.333-5.83-11.25-4.58,1.25-8.33,5.833-8.33,10C3680.7,218.333,3691.11,219.167,3694.86,210Zm52.48-62.083a2.085,2.085,0,1,0-2.09,2.083A1.974,1.974,0,0,0,3747.34,147.917ZM3555.76,706.25a2.085,2.085,0,1,1,2.08,2.083A1.965,1.965,0,0,1,3555.76,706.25ZM4186.3,1082.5c-1.67-2.92-1.25-3.33,1.66-1.67s5,3.75,5,5C4192.96,1089.17,4189.21,1087.5,4186.3,1082.5Zm12.49-12.5c-1.67-2.92-1.25-3.33,1.67-1.67s4.99,3.75,4.99,5C4205.45,1076.67,4201.7,1075,4198.79,1070Zm1.25-14.58c-1.67-1.25-2.92-4.59-2.92-7.09s2.09-2.08,5,.84c2.5,2.5,3.75,5.83,2.92,7.08C4203.79,1057.5,4201.29,1057.08,4200.04,1055.42Zm22.07-40.84a2.085,2.085,0,1,1,2.08,2.09A1.963,1.963,0,0,1,4222.11,1014.58ZM2583.72,681.25c-4.58-3.333-7.08-7.083-5.83-8.333,0.83-1.25,5.42,1.666,9.58,6.25C2596.22,688.75,2594.97,689.583,2583.72,681.25Zm-110.78-12.5a2.085,2.085,0,1,1,2.08,2.083A1.965,1.965,0,0,1,2472.94,668.75Zm1000.78-9.167a5,5,0,0,1,5.83,0c1.25,1.667,0,2.917-2.92,2.917S3472.47,661.25,3473.72,659.583Zm-180.33-11.666a2.08,2.08,0,1,1,2.08,2.083A1.966,1.966,0,0,1,3293.39,647.917Z"/>
</svg>
