<?xml version="1.0" encoding="utf-8"?>
<!-- Generator: Adobe Illustrator 23.0.2, SVG Export Plug-In . SVG Version: 6.00 Build 0)  -->
<svg version="1.1"
	 id="svg2" inkscape:export-filename="E:\Pictures\MichelinStar_400px.png" inkscape:export-xdpi="234.835" inkscape:export-ydpi="234.835" sodipodi:docname="MichelinStar.svg" xmlns:cc="http://creativecommons.org/ns#" xmlns:dc="http://purl.org/dc/elements/1.1/" xmlns:inkscape="http://www.inkscape.org/namespaces/inkscape" xmlns:rdf="http://www.w3.org/1999/02/22-rdf-syntax-ns#" xmlns:sodipodi="http://sodipodi.sourceforge.net/DTD/sodipodi-0.dtd"
	 xmlns="http://www.w3.org/2000/svg" xmlns:xlink="http://www.w3.org/1999/xlink" x="0px" y="0px" viewBox="0 0 153.5 143"
	 style="enable-background:new 0 0 153.5 143;" xml:space="preserve">
<style type="text/css">
	.st0{fill:#A97649;}
</style>
<title  id="title3975">Michelin Star</title>
<sodipodi:namedview  bordercolor="#666666" borderopacity="1" fit-margin-bottom="0" fit-margin-left="0" fit-margin-right="0" fit-margin-top="0" inkscape:current-layer="layer1" inkscape:cx="-158.009" inkscape:cy="153.544" inkscape:document-units="px" inkscape:guide-bbox="true" inkscape:pageopacity="0" inkscape:pageshadow="2" inkscape:window-height="716" inkscape:window-maximized="1" inkscape:window-width="1366" inkscape:window-x="-8" inkscape:window-y="-8" inkscape:zoom=".99" pagecolor="#ffffff" showgrid="false" showguides="true">
	<sodipodi:guide  position="64.492454,172.55066"></sodipodi:guide>
	<sodipodi:guide  position="88.988654,172.80319"></sodipodi:guide>
	<sodipodi:guide  orientation="0,1" position="-9.7537665,105.62805"></sodipodi:guide>
	<sodipodi:guide  orientation="0,1" position="-2.9352365,84.162313"></sodipodi:guide>
	<sodipodi:guide  orientation="0,1" position="11.964514,62.444033"></sodipodi:guide>
	<sodipodi:guide  position="52.875694,130.12425"></sodipodi:guide>
	<sodipodi:guide  position="100.10032,117.49734"></sodipodi:guide>
</sodipodi:namedview>
<g id="layer2_1_" transform="translate(-287.04 -335.34)" inkscape:groupmode="layer" inkscape:label="Layer">
	<g id="path3013_1_">
		<path class="st0" d="M370.9,376.4c-0.4,0-0.9-0.1-1.3-0.3c-1.5-0.7-2-2.5-1.3-3.9c2.6-5.2,8.3-20.3,4.2-26.8
			c-1.5-2.3-4.2-3.3-8.3-3.3c-4.5,0.1-7.4,1.4-9,4c-4.2,7.2,2.2,22.5,4.1,25.9l-2.6,1.4l0,0.1l-1.7,2.4c-1.8-1.3-9.5-18.8-6.2-29.6
			c1.4-4.4,5.1-9.8,15.2-10c6.3-0.2,10.8,1.9,13.4,6c6.7,10.4-2.7,30.3-3.8,32.5C373.1,375.8,372,376.4,370.9,376.4z"/>
	</g>
	<g id="path3013-4_1_">
		<path class="st0" d="M364.6,435.8c-0.2,0-0.4,0-0.6,0c-10.1-0.2-13.9-5.6-15.2-10c-3.3-10.7,4.4-28.3,6.2-29.6l1.7,2.4l-1.1,2.7
			l1.1-2.7l2.6,1.4c-1.8,3.4-8.3,18.7-4.1,25.9c1.5,2.6,4.5,3.9,9,4c4.1,0.1,6.9-1,8.3-3.3c4.1-6.5-1.8-21.9-4.2-26.8
			c-0.7-1.5-0.1-3.2,1.3-3.9c1.5-0.7,3.2-0.1,3.9,1.3c1.1,2.2,10.5,22.1,3.8,32.5C374.9,433.8,370.6,435.8,364.6,435.8z"/>
	</g>
	<g id="path3013-8_1_">
		<path class="st0" d="M349.9,388.9c-0.1,0-0.1,0-0.2,0c-2.4-0.1-23.6-1.6-29.8-12.7c-2.5-4.5-2.1-9.6,1-15.4c3-5.5,7-8.4,11.9-8.6
			c12.3-0.6,24.8,17.5,26.2,19.6c0.9,1.3,0.5,3.2-0.8,4.1c-1.3,0.9-3.2,0.5-4.1-0.8c-3.3-4.8-13.4-17.4-21.1-17
			c-2.7,0.1-5,1.9-7,5.6c-2.2,3.9-2.5,7.1-1,9.7c3.9,7,19.3,9.3,25,9.6c1.6,0.1,2.8,1.5,2.8,3.1
			C352.8,387.7,351.5,388.9,349.9,388.9z"/>
	</g>
	<g id="path3013-8-2_1_">
		<path class="st0" d="M334.2,419.2c-0.1,0-0.1,0-0.2,0c-5.1-0.1-9.4-3-12.9-8.7c-3.2-5.4-3.8-10.3-1.5-14.6
			c5.7-11,27.6-12.8,30.1-12.9c1.6-0.1,3,1.1,3.1,2.7c0.1,1.6-1.1,3-2.7,3.1c-5.8,0.4-21.7,2.9-25.3,9.8c-1.2,2.4-0.8,5.3,1.3,8.8
			c2.4,3.9,5,5.8,8,5.8c7.9,0.1,17.1-11.7,20.1-16.3c0.9-1.4,2.7-1.8,4-0.9c1.4,0.9,1.8,2.7,0.9,4
			C357.9,402.1,346.5,419.2,334.2,419.2z"/>
	</g>
	<g id="path3013-8-4_1_">
		<path class="st0" d="M377.7,388.9c-1.5,0-2.8-1.2-2.9-2.8c-0.1-1.6,1.1-3,2.8-3.1c5.6-0.3,21.1-2.7,25-9.6c1.4-2.6,1.1-5.8-1-9.7
			c-2-3.6-4.3-5.5-7-5.6c-7.7-0.3-18.1,12.5-21.1,17c-0.9,1.3-2.7,1.7-4.1,0.8c-1.3-0.9-1.7-2.7-0.8-4.1
			c1.4-2.1,13.9-20.1,26.2-19.6c4.8,0.2,8.8,3.1,11.9,8.6c3.2,5.7,3.5,10.9,1,15.4c-6.1,11-27.4,12.5-29.8,12.7
			C377.8,388.9,377.7,388.9,377.7,388.9z"/>
	</g>
	<g id="path3013-8-2-5_1_">
		<path class="st0" d="M393.4,419.2c-12.3,0-23.6-17.1-24.9-19c-0.9-1.4-0.5-3.2,0.9-4c1.4-0.9,3.2-0.5,4,0.9
			c2.9,4.6,12.2,16.3,20,16.3c0,0,0.1,0,0.1,0c3,0,5.6-2,7.9-5.8c2.1-3.5,2.6-6.4,1.3-8.8c-3.6-6.8-19.8-9.4-25.3-9.8
			c-1.6-0.1-2.8-1.5-2.7-3.1c0.1-1.6,1.5-2.8,3.1-2.7c2.5,0.2,24.4,1.9,30.1,12.9c2.2,4.3,1.7,9.2-1.5,14.6
			c-3.4,5.7-7.8,8.6-12.9,8.7C393.5,419.2,393.4,419.2,393.4,419.2z"/>
	</g>
</g>
<g>
	<path d="M28.9,140.8c0,0.1,0,0.2-0.1,0.3c-0.1,0.1-0.2,0.2-0.4,0.2c-0.2,0.1-0.4,0.1-0.7,0.1c-0.3,0-0.7,0.1-1.1,0.1
		c-0.4,0-0.8,0-1.1-0.1c-0.3,0-0.5-0.1-0.7-0.1c-0.2-0.1-0.3-0.1-0.4-0.2c-0.1-0.1-0.1-0.2-0.1-0.3v-19.5h0l-6.9,19.4
		c0,0.2-0.1,0.3-0.2,0.4c-0.1,0.1-0.3,0.2-0.5,0.2c-0.2,0.1-0.4,0.1-0.7,0.1c-0.3,0-0.7,0-1.1,0c-0.4,0-0.8,0-1.1,0
		c-0.3,0-0.5-0.1-0.7-0.1c-0.2-0.1-0.3-0.2-0.5-0.2c-0.1-0.1-0.2-0.2-0.2-0.4l-6.7-19.4h0v19.5c0,0.1,0,0.2-0.1,0.3
		c-0.1,0.1-0.2,0.2-0.4,0.2c-0.2,0.1-0.4,0.1-0.7,0.1c-0.3,0-0.7,0.1-1.1,0.1c-0.4,0-0.8,0-1.1-0.1c-0.3,0-0.5-0.1-0.7-0.1
		c-0.2-0.1-0.3-0.1-0.4-0.2C1,141,1,140.9,1,140.8v-21.3c0-0.6,0.2-1.1,0.5-1.4c0.3-0.3,0.8-0.5,1.3-0.5H6c0.6,0,1.1,0,1.5,0.1
		c0.4,0.1,0.8,0.2,1.1,0.5c0.3,0.2,0.5,0.5,0.7,0.8c0.2,0.4,0.4,0.8,0.5,1.3l5.2,14.2H15l5.4-14.2c0.2-0.5,0.3-1,0.5-1.3
		c0.2-0.4,0.4-0.6,0.7-0.9c0.3-0.2,0.6-0.4,0.9-0.5c0.3-0.1,0.7-0.1,1.2-0.1H27c0.3,0,0.6,0,0.9,0.1c0.2,0.1,0.4,0.2,0.6,0.4
		c0.2,0.2,0.3,0.4,0.4,0.6c0.1,0.2,0.1,0.5,0.1,0.8V140.8z"/>
	<path d="M39,140.8c0,0.1,0,0.2-0.1,0.3c-0.1,0.1-0.2,0.2-0.4,0.2c-0.2,0.1-0.4,0.1-0.7,0.1c-0.3,0-0.7,0.1-1.2,0.1
		c-0.5,0-0.9,0-1.2-0.1c-0.3,0-0.6-0.1-0.7-0.1c-0.2-0.1-0.3-0.1-0.4-0.2c-0.1-0.1-0.1-0.2-0.1-0.3v-22.6c0-0.1,0-0.2,0.1-0.3
		c0.1-0.1,0.2-0.2,0.4-0.2c0.2-0.1,0.4-0.1,0.7-0.1c0.3,0,0.7-0.1,1.2-0.1c0.5,0,0.9,0,1.2,0.1c0.3,0,0.6,0.1,0.7,0.1
		c0.2,0.1,0.3,0.1,0.4,0.2c0.1,0.1,0.1,0.2,0.1,0.3V140.8z"/>
	<path d="M60.8,137.8c0,0.3,0,0.6,0,0.8c0,0.2,0,0.4-0.1,0.6c0,0.2-0.1,0.3-0.1,0.4c-0.1,0.1-0.2,0.2-0.3,0.4
		c-0.1,0.1-0.4,0.3-0.8,0.5c-0.4,0.2-0.9,0.4-1.4,0.6c-0.6,0.2-1.2,0.4-1.9,0.5c-0.7,0.1-1.5,0.2-2.3,0.2c-1.6,0-3.1-0.3-4.4-0.8
		c-1.3-0.5-2.4-1.3-3.4-2.3c-0.9-1-1.6-2.3-2.1-3.8c-0.5-1.5-0.7-3.3-0.7-5.2c0-2,0.3-3.8,0.8-5.4c0.5-1.6,1.3-2.9,2.3-4
		c1-1.1,2.1-1.9,3.5-2.4c1.4-0.6,2.9-0.8,4.5-0.8c0.7,0,1.3,0.1,1.9,0.2c0.6,0.1,1.2,0.3,1.7,0.4c0.5,0.2,1,0.4,1.4,0.6
		c0.4,0.2,0.7,0.4,0.9,0.6c0.2,0.2,0.3,0.3,0.3,0.4c0.1,0.1,0.1,0.3,0.1,0.4c0,0.2,0.1,0.4,0.1,0.6c0,0.2,0,0.5,0,0.9
		c0,0.4,0,0.7,0,0.9c0,0.3-0.1,0.5-0.1,0.6c-0.1,0.2-0.1,0.3-0.2,0.4c-0.1,0.1-0.2,0.1-0.3,0.1c-0.2,0-0.4-0.1-0.7-0.3
		s-0.7-0.5-1.1-0.7c-0.5-0.3-1-0.5-1.6-0.7c-0.6-0.2-1.4-0.3-2.2-0.3c-0.9,0-1.8,0.2-2.5,0.6c-0.7,0.4-1.4,0.9-1.9,1.7
		c-0.5,0.7-0.9,1.6-1.2,2.6s-0.4,2.2-0.4,3.5c0,1.4,0.1,2.6,0.4,3.6c0.3,1,0.7,1.9,1.2,2.5c0.5,0.7,1.2,1.2,1.9,1.5
		c0.8,0.3,1.6,0.5,2.6,0.5c0.9,0,1.6-0.1,2.2-0.3c0.6-0.2,1.2-0.4,1.6-0.7c0.4-0.2,0.8-0.5,1.1-0.7c0.3-0.2,0.5-0.3,0.7-0.3
		c0.1,0,0.2,0,0.3,0.1c0.1,0,0.1,0.1,0.2,0.3c0,0.1,0.1,0.4,0.1,0.6C60.8,137,60.8,137.4,60.8,137.8z"/>
	<path d="M83,140.8c0,0.1,0,0.2-0.1,0.3c-0.1,0.1-0.2,0.2-0.4,0.2c-0.2,0.1-0.4,0.1-0.7,0.1c-0.3,0-0.7,0.1-1.2,0.1
		c-0.5,0-0.9,0-1.2-0.1c-0.3,0-0.6-0.1-0.7-0.1c-0.2-0.1-0.3-0.1-0.4-0.2c-0.1-0.1-0.1-0.2-0.1-0.3v-9.7h-9v9.7c0,0.1,0,0.2-0.1,0.3
		c-0.1,0.1-0.2,0.2-0.4,0.2c-0.2,0.1-0.4,0.1-0.7,0.1c-0.3,0-0.7,0.1-1.2,0.1c-0.5,0-0.9,0-1.2-0.1c-0.3,0-0.6-0.1-0.7-0.1
		c-0.2-0.1-0.3-0.1-0.4-0.2c-0.1-0.1-0.1-0.2-0.1-0.3v-22.6c0-0.1,0-0.2,0.1-0.3c0.1-0.1,0.2-0.2,0.4-0.2c0.2-0.1,0.4-0.1,0.7-0.1
		c0.3,0,0.7-0.1,1.2-0.1c0.5,0,0.9,0,1.2,0.1c0.3,0,0.6,0.1,0.7,0.1c0.2,0.1,0.3,0.1,0.4,0.2c0.1,0.1,0.1,0.2,0.1,0.3v8.8h9v-8.8
		c0-0.1,0-0.2,0.1-0.3c0.1-0.1,0.2-0.2,0.4-0.2c0.2-0.1,0.4-0.1,0.7-0.1c0.3,0,0.7-0.1,1.2-0.1c0.5,0,0.9,0,1.2,0.1
		c0.3,0,0.6,0.1,0.7,0.1c0.2,0.1,0.3,0.1,0.4,0.2c0.1,0.1,0.1,0.2,0.1,0.3V140.8z"/>
	<path d="M102.4,139.5c0,0.4,0,0.7,0,0.9c0,0.2-0.1,0.4-0.1,0.6c-0.1,0.1-0.1,0.3-0.2,0.3c-0.1,0.1-0.2,0.1-0.3,0.1h-12
		c-0.4,0-0.8-0.1-1-0.4c-0.3-0.2-0.4-0.6-0.4-1.2v-20.8c0-0.5,0.1-0.9,0.4-1.2c0.3-0.2,0.6-0.4,1-0.4h12c0.1,0,0.2,0,0.3,0.1
		c0.1,0.1,0.2,0.2,0.2,0.3c0.1,0.2,0.1,0.4,0.1,0.6c0,0.2,0,0.5,0,0.9c0,0.3,0,0.6,0,0.9c0,0.2-0.1,0.4-0.1,0.6
		c-0.1,0.1-0.1,0.3-0.2,0.3c-0.1,0.1-0.2,0.1-0.3,0.1H93v5.8h7.2c0.1,0,0.2,0,0.3,0.1c0.1,0.1,0.2,0.2,0.2,0.3
		c0.1,0.1,0.1,0.3,0.1,0.6c0,0.2,0,0.5,0,0.9c0,0.4,0,0.7,0,0.9c0,0.2-0.1,0.4-0.1,0.6c-0.1,0.1-0.1,0.2-0.2,0.3
		c-0.1,0.1-0.2,0.1-0.3,0.1H93v6.7h8.6c0.1,0,0.2,0,0.3,0.1s0.2,0.2,0.2,0.3c0.1,0.1,0.1,0.3,0.1,0.6
		C102.4,138.9,102.4,139.2,102.4,139.5z"/>
	<path d="M119.8,139.4c0,0.4,0,0.7,0,0.9c0,0.3-0.1,0.5-0.1,0.6c-0.1,0.2-0.1,0.3-0.2,0.4c-0.1,0.1-0.2,0.1-0.3,0.1h-11
		c-0.4,0-0.8-0.1-1-0.4c-0.3-0.2-0.4-0.6-0.4-1.2v-21.7c0-0.1,0-0.2,0.1-0.3s0.2-0.2,0.4-0.2c0.2-0.1,0.4-0.1,0.7-0.1
		c0.3,0,0.7-0.1,1.2-0.1c0.5,0,0.9,0,1.2,0.1c0.3,0,0.6,0.1,0.7,0.1c0.2,0.1,0.3,0.1,0.4,0.2c0.1,0.1,0.1,0.2,0.1,0.3v19.2h7.5
		c0.1,0,0.2,0,0.3,0.1c0.1,0.1,0.2,0.2,0.2,0.3c0.1,0.2,0.1,0.4,0.1,0.6C119.8,138.7,119.8,139,119.8,139.4z"/>
	<path d="M127.6,140.8c0,0.1,0,0.2-0.1,0.3c-0.1,0.1-0.2,0.2-0.4,0.2c-0.2,0.1-0.4,0.1-0.7,0.1c-0.3,0-0.7,0.1-1.2,0.1
		c-0.5,0-0.9,0-1.2-0.1c-0.3,0-0.6-0.1-0.7-0.1c-0.2-0.1-0.3-0.1-0.4-0.2c-0.1-0.1-0.1-0.2-0.1-0.3v-22.6c0-0.1,0-0.2,0.1-0.3
		s0.2-0.2,0.4-0.2c0.2-0.1,0.4-0.1,0.7-0.1c0.3,0,0.7-0.1,1.2-0.1c0.5,0,0.9,0,1.2,0.1c0.3,0,0.6,0.1,0.7,0.1
		c0.2,0.1,0.3,0.1,0.4,0.2c0.1,0.1,0.1,0.2,0.1,0.3V140.8z"/>
	<path d="M152.6,139.7c0,0.3,0,0.5-0.1,0.8c-0.1,0.2-0.2,0.4-0.4,0.6c-0.2,0.1-0.4,0.3-0.6,0.3c-0.2,0.1-0.5,0.1-0.7,0.1h-2.1
		c-0.4,0-0.8,0-1.1-0.1c-0.3-0.1-0.6-0.2-0.9-0.5c-0.3-0.2-0.5-0.5-0.8-0.9c-0.2-0.4-0.5-0.9-0.8-1.5l-6-11.2
		c-0.3-0.7-0.7-1.4-1.1-2.2c-0.4-0.8-0.7-1.5-1-2.2h0c0,0.9,0.1,1.8,0.1,2.7c0,0.9,0,1.8,0,2.7v12.5c0,0.1,0,0.2-0.1,0.3
		c-0.1,0.1-0.2,0.2-0.4,0.2c-0.2,0.1-0.4,0.1-0.7,0.2c-0.3,0-0.6,0.1-1.1,0.1c-0.4,0-0.8,0-1.1-0.1c-0.3,0-0.5-0.1-0.7-0.2
		c-0.2-0.1-0.3-0.2-0.3-0.2c-0.1-0.1-0.1-0.2-0.1-0.3v-21.5c0-0.6,0.2-1,0.5-1.3c0.3-0.3,0.8-0.4,1.2-0.4h2.6c0.5,0,0.9,0,1.2,0.1
		c0.3,0.1,0.6,0.2,0.9,0.4c0.3,0.2,0.5,0.4,0.7,0.8c0.2,0.3,0.5,0.7,0.7,1.2l4.7,8.7c0.3,0.5,0.5,1,0.8,1.6c0.3,0.5,0.5,1,0.8,1.5
		c0.2,0.5,0.5,1,0.7,1.5c0.2,0.5,0.5,1,0.7,1.5h0c0-0.9-0.1-1.8-0.1-2.7c0-0.9,0-1.8,0-2.7v-11.2c0-0.1,0-0.2,0.1-0.3
		c0.1-0.1,0.2-0.2,0.4-0.3c0.2-0.1,0.4-0.1,0.7-0.2c0.3,0,0.6,0,1.1,0c0.4,0,0.8,0,1.1,0c0.3,0,0.5,0.1,0.7,0.2
		c0.2,0.1,0.3,0.2,0.3,0.3c0.1,0.1,0.1,0.2,0.1,0.3V139.7z"/>
</g>
</svg>
