<?xml version="1.0" encoding="utf-8"?>
<!-- Generator: Adobe Illustrator 23.0.2, SVG Export Plug-In . SVG Version: 6.00 Build 0)  -->
<svg version="1.1" id="Layer_1" xmlns="http://www.w3.org/2000/svg" xmlns:xlink="http://www.w3.org/1999/xlink" x="0px" y="0px"
	 viewBox="0 0 137 137.8" style="enable-background:new 0 0 137 137.8;" xml:space="preserve">
<path d="M17.2,72.1c0,1.1,0.2,2.2,0.2,3.4l-0.6,0l0-0.3c0-0.6-0.1-1.3-1.7-1.2l-9.8,0.3c-1.4,0-1.6,0.4-1.6,1.4l0,0.2l-0.6,0
	c0-0.7,0-1.8,0-2.9c0-1.1-0.1-2.1-0.2-3c-0.1-2.8,0.8-4.8,3.7-4.9c2.4-0.1,4,1.6,4.3,3.8c0.1,0.6,0.1,1.2,0.1,1.6l-0.6,0l0-0.4
	c-0.1-1.7-1.5-2.4-3.6-2.3c-2,0.1-3.2,1.1-3.1,3.2l0,0.6l11.2-0.4c1.7-0.1,1.7-1,1.6-2l0-0.3l0.6,0C17.2,70,17.1,71,17.2,72.1z
	 M19,51.2l0.6,0.1c-0.1,0.7-0.3,1.3-0.5,1.9c-0.1,0.6-0.2,1.3-0.3,1.9c-2.3,1.1-4.8,2-7.3,2.9l-0.3,1.3l4.3,0.9
	c1.5,0.3,1.7-0.4,1.9-1.3l0.1-0.4l0.6,0.1c-0.2,1.1-0.5,2.3-0.8,3.4C17.1,63,17,64,16.8,65l-0.6-0.1l0.1-0.4
	c0.1-0.7-0.1-1.5-0.8-1.6L5.3,60.8c-1.5-0.3-1.7,0.5-1.8,1.1l-0.1,0.4l-0.6-0.1c0.1-0.6,0.5-1.9,0.7-3.1c0.2-1.2,0.4-2.2,0.6-3.2
	c0.5-2.5,1.6-4.6,4.5-4.1c1.8,0.4,2.7,1.8,3,3.5l5.8-2.4C18.3,52.5,18.7,52.1,19,51.2z M8.2,54.5C6.4,54.1,5,55,4.7,56.8
	c-0.1,0.6-0.1,0.9-0.1,1.2l6,1.2l0.2-1C11.1,56.2,10.6,54.9,8.2,54.5z M22.2,44.7c-0.3,0.7-0.7,1.3-1.7,0.9l-9.8-4.3
	c-1-0.4-0.7-1.2-0.4-1.9l0.1-0.3l-0.6-0.2c-0.4,0.9-0.8,2-1.2,3c-0.4,0.9-1,2-1.3,2.7l0.6,0.2L8,44.5c0.3-0.7,0.7-1.3,1.7-0.9
	l9.8,4.3c1,0.4,0.7,1.2,0.5,1.9l-0.1,0.3l0.6,0.2c0.3-0.7,0.7-1.9,1.1-2.8c0.4-0.9,1-2,1.4-2.9l-0.6-0.2L22.2,44.7z M25.2,40.3
	c-0.8,1.1-1.7,2.3-2,2.7l-0.5-0.4l0.2-0.2c0.4-0.6,0.8-1.3,0-1.9L14.4,34c-0.8-0.6-1.4-0.1-1.8,0.5l-0.2,0.2l-0.5-0.4
	c0.4-0.5,1.3-1.5,2.1-2.5c0.8-1,1.4-2,1.9-2.7c3.1-4,7.2-4.7,10.6-2.1c3.2,2.5,3.8,7.2,1.1,10.4C26.9,38.1,26,39.2,25.2,40.3z
	 M26.6,37.4c2.1-2.8,0.9-5.9-1.6-7.9c-4.3-3.3-7-1.9-9,0.7c-0.3,0.4-0.5,0.8-0.8,1.2l8.8,6.7C25.2,39,25.7,38.6,26.6,37.4z
	 M23.1,21.5c0.6-0.5,1.2-0.9,1.9-0.1l6.8,8.3c0.7,0.8,0.1,1.4-0.4,1.9l-0.2,0.2l0.4,0.5c0.9-0.7,2.7-2.3,4.1-3.5
	c1.4-1.2,3.3-2.6,4.3-3.4c-0.5-1-1-1.9-1.5-2.9l-0.5,0.3c1,2.2,0.3,3-1.6,4.6c-1,0.8-1.9,1.6-2.8,0.6l-3-3.7l1.9-1.6
	c1.1-0.9,1.6-0.3,2.5,0.6l0.4-0.5c-0.5-0.6-1-1.2-1.5-1.8c-0.5-0.6-1-1.2-1.5-1.9l-0.5,0.4c0.6,0.9,0.8,1.6-0.1,2.4l-1.9,1.5
	l-3.4-4.1l2.2-1.8c1.7-1.4,2.5-0.7,3.4,0.3l0.4-0.5c-0.6-0.7-1.5-1.7-2-2.4c-1.1,0.9-2.7,2.3-4,3.4c-1.3,1.1-3,2.4-4,3.2l0.4,0.5
	L23.1,21.5z M42.4,15.5c-1.4-4,0.6-8.2,4.7-9.6c4.1-1.4,8.3,0,9.7,4.1c1.5,4.4-0.6,8.5-4.7,9.9C47.9,21.3,43.8,19.6,42.4,15.5z
	 M44.9,13.9c1.2,3.5,3.9,6.2,7,5.1c3.7-1.3,3.3-4.8,2.3-7.6c-1-2.8-3.7-5.7-6.9-4.6C43.9,7.9,44,11.3,44.9,13.9z M57.5,3.9
	c0.7-0.1,1.5,0,1.6,1l1,10.6c0.1,1.1-0.7,1.2-1.4,1.3l-0.3,0l0.1,0.6c0.8-0.1,2-0.3,3.1-0.4c1.2-0.1,2.5-0.2,3.5-0.3l-0.1-0.6
	l-0.3,0c-1,0.1-2,0.2-2.1-1l-0.5-5.2l2.5-0.2c1.3-0.1,1.7,0.7,1.8,1.8l0.6-0.1c-0.1-0.8-0.2-1.6-0.3-2.5c-0.1-0.7-0.1-1.4-0.1-2.2
	l-0.6,0.1c0.1,1-0.1,1.7-1.1,1.8l-2.8,0.3l-0.5-5.3l3.3-0.3c1.6-0.2,2,0.8,2.3,2.2l0.6-0.2c-0.1-0.9-0.3-2.2-0.3-3.1
	c-1.4,0.1-3.5,0.4-5.2,0.6c-1.7,0.2-3.8,0.3-5.1,0.4L57.2,4L57.5,3.9z M77.2,17.3c-1.2-0.3-2.7-0.5-3.5-0.7l0.1-0.6l0.3,0.1
	c0.7,0.2,1.5,0.2,1.7-0.8L78,4.8c0.2-1-0.5-1.3-1.2-1.5l-0.3-0.1l0.1-0.6c0.9,0.2,2,0.5,3.1,0.8c1.1,0.2,2.3,0.4,3.2,0.6
	c3.4,0.7,4.3,2.4,3.9,4.1c-0.4,2-2.5,2.5-4.3,2.4l0,0c2.2,0.4,4.2,2.1,3.7,4.5c-0.5,2.2-3,3.5-5.6,2.9
	C79.7,17.9,78.4,17.6,77.2,17.3z M79.6,9.7l1,0.2c1.7,0.4,3.1-0.1,3.5-2c0.5-2.3-0.8-3.1-2.1-3.4l-1.2-0.3L79.6,9.7z M79.9,17.2
	c1.7,0.4,3.3-0.7,3.6-2.5c0.5-2.2-0.8-3.6-2.8-4l-1.3-0.3l-1,4.7C78.2,16.5,78.4,16.9,79.9,17.2z M87.8,18.2l4.6-9.3
	c0.7-1.3-0.1-1.8-0.6-2l-0.3-0.2l0.3-0.6c0.6,0.3,1.7,0.9,2.8,1.5c1.1,0.5,2,0.9,3,1.4c2.3,1.1,4.1,2.8,2.8,5.4
	c-0.8,1.7-2.4,2.1-4.1,2l0.8,6.2c0.1,1,0.4,1.4,1.2,2l-0.3,0.6c-0.6-0.3-1.2-0.7-1.8-1c-0.6-0.3-1.2-0.5-1.8-0.8
	c-0.5-2.5-0.7-5.1-0.9-7.8L92.3,15l-1.9,3.9c-0.7,1.4-0.1,1.8,0.8,2.2l0.3,0.2l-0.3,0.5c-1-0.5-2.1-1.1-3.1-1.6
	c-0.9-0.4-1.8-0.8-2.7-1.2l0.3-0.6l0.3,0.2C86.7,18.9,87.4,18.9,87.8,18.2z M92.6,14.3l0.9,0.4c1.8,0.9,3.2,0.7,4.2-1.5
	c0.8-1.6,0.3-3.2-1.4-4C95.8,9,95.5,9,95.3,8.9L92.6,14.3z M99.4,25.9l-0.2-0.2l-0.4,0.5c0.6,0.5,1.6,1.2,2.4,1.8
	c0.8,0.6,1.7,1.5,2.5,2.1l0.4-0.5l-0.2-0.2c-0.6-0.5-1.1-1-0.4-1.9l6.7-8.3c0.7-0.8,1.3-0.4,1.9,0l0.2,0.2l0.4-0.5
	c-0.7-0.6-1.8-1.3-2.5-1.9c-0.8-0.6-1.7-1.5-2.3-2l-0.4,0.5l0.2,0.2c0.6,0.5,1.1,1,0.4,1.9l-6.7,8.3C100.7,26.8,100,26.4,99.4,25.9z
	 M112.4,22.4c1.3-0.7,1.6-0.9,2.6,0.2l2.2,2.5l-8.3,7.1c-1.2,1.1-1.7,0.7-2.4-0.2l-0.3-0.3l-0.5,0.4c0.5,0.6,1.5,1.6,2.3,2.6
	c0.7,0.8,1.6,2,2.1,2.6l0.5-0.4l-0.3-0.3c-0.6-0.7-1-1.4,0.2-2.4l8.2-7.1l2.2,2.5c0.9,1,0,1.9-0.5,2.4l0.6,0.3
	c0.4-0.4,0.8-0.7,1.3-1c0.5-0.3,0.9-0.6,1.4-0.9l-0.3-0.4c-0.5,0.4-0.8,0-1.2-0.4l-6.9-8c-0.4-0.4-0.7-0.8-0.4-1.3l-0.3-0.4
	c-0.5,0.4-0.9,0.7-1.4,1c-0.5,0.3-1,0.6-1.5,0.9L112.4,22.4z M118.6,50.7L118,51c-0.4-0.8-0.8-1.7-1.2-2.5c-0.5-0.9-1-1.8-1.5-2.7
	l0.5-0.3l0.1,0.2c0.2,0.4,0.7,1.1,1.1,0.8c0.2-0.1,0.6-0.5,1.1-1l1.7-1.8l-2.1-4.1l-2.2,0.4c-0.7,0.1-1.3,0.2-1.6,0.3
	c-0.5,0.3-0.2,1.1,0.1,1.7l0.1,0.2l-0.5,0.3c-0.3-0.7-0.7-1.5-1.1-2.2c-0.3-0.7-0.7-1.3-1.1-1.9L112,38l0.1,0.1c0.4,0.7,1.1,1.1,2,1
	l9.8-1.4c0.8-0.1,1.9-0.3,2.6-0.5c0.5,0.5,1.2,1,1.6,1.2c0,0,0.1,0.1,0.1,0.1c0,0.1,0,0.1,0,0.2c-0.1,0.1-0.3,0.3-0.4,0.4l-7.7,8.3
	c-0.5,0.5-1.1,1.1-1.5,1.6c-0.4,0.5-0.4,1-0.1,1.6L118.6,50.7z M120.8,42.8l4.3-4.3l0,0l-6,1L120.8,42.8z M120.2,58.1
	c-0.2-0.7-0.3-1.5,0.7-1.8l10.4-2.7c1-0.3,1.3,0.5,1.5,1.2l0.1,0.3l0.6-0.2c-0.2-0.9-0.6-2.1-0.9-3.1c-0.3-1-0.5-2.2-0.7-2.9
	l-0.6,0.2l0.1,0.3c0.2,0.7,0.3,1.5-0.7,1.8l-10.4,2.7c-1,0.3-1.3-0.5-1.5-1.2l-0.1-0.3l-0.6,0.2c0.2,0.8,0.6,1.9,0.8,2.9
	c0.3,1,0.5,2.2,0.7,3.1l0.6-0.2L120.2,58.1z M134.3,76l0,0.3l0.6,0c0-0.8-0.1-1.7-0.1-2.5c0-1,0.1-1.9,0.1-2.9l-0.6,0l0,0.4
	c0,0.6-0.2,1.8-1.9,1.8l-7.7,0l0,0l10.2-9.1c0-0.6-0.1-1.2-0.1-1.8c0-0.8,0.1-1.6,0.1-2.3l-0.6,0l0,0.3c0,0.9-0.7,1.9-1.8,1.9
	l-8.6,0c-1.6,0-2.6-0.4-2.6-1.8l0-0.3l-0.6,0c0,0.9,0.1,1.9,0.1,2.8c0,0.9-0.1,1.8-0.1,2.6l0.6,0l0-0.3c0-1.6,0.6-1.9,2.4-1.9l8.4,0
	l-11.7,10.6l0,0.8c0.6-0.1,1.3-0.1,2.1-0.1l9.3,0C134.1,74.2,134.3,75.1,134.3,76z M133.8,78.9l0,0.1c0.3,0.1,0.3,0.1,0.3,0.4
	l-0.1,0.6l-2-0.4c-0.3-0.1-0.3-0.2-0.3-0.4l0-0.1l-0.1,0c0,0.1-0.1,0.4-0.1,0.6c0,0.2-0.1,0.5-0.1,0.6l0.1,0l0-0.1
	c0-0.2,0.1-0.3,0.4-0.3l2,0.4l-0.1,0.6c0,0.3-0.3,0.2-0.4,0.2l0,0.1c0.1,0,0.2,0,0.3,0.1c0.1,0,0.2,0.1,0.3,0.1l0-0.1
	c-0.1,0-0.1-0.1-0.1-0.2l0.4-2c0-0.1,0-0.2,0.2-0.2l0-0.1c-0.1,0-0.2,0-0.3-0.1C134,79,133.9,79,133.8,78.9z M133.7,82.1
	c0,0.2-0.1,0.3-0.4,0.3c-0.2,0-0.4-0.1-0.7-0.2l-1-0.4c-0.3-0.1-0.4-0.1-0.3-0.4l0-0.1l-0.1,0c0,0.1-0.1,0.3-0.1,0.5
	c0,0.2-0.1,0.3-0.1,0.5l0.1,0l0,0c0-0.1,0.1-0.2,0.1-0.2c0,0,0.1-0.1,0.2,0l1.6,0.5l0,0l-2.3,0.4l0,0.1l1.9,1.5l0,0l-1.6-0.3
	c-0.1,0-0.1,0-0.2,0c-0.2,0-0.1-0.2-0.1-0.4l-0.1,0c0,0.2-0.1,0.4-0.1,0.6c0,0.2-0.1,0.4-0.1,0.5l0.1,0c0.1-0.2,0.1-0.3,0.3-0.3
	l1.8,0.3c0.1,0,0.2,0,0.3,0.1c0.2,0,0.1,0.3,0.1,0.4l0,0l0.1,0c0-0.1,0-0.3,0.1-0.4c0-0.1,0.1-0.3,0.1-0.4l-1.8-1.4l2.2-0.4
	c0-0.1,0-0.2,0.1-0.3c0-0.2,0.1-0.3,0.1-0.5L133.7,82.1L133.7,82.1z M37.4,124.6l6.5-8.5c0.6-0.8,1.3-0.5,1.9,0l0.2,0.2l0.4-0.5
	c-0.6-0.5-1.7-1.2-2.5-1.8c-0.9-0.7-1.9-1.5-2.6-2.1l-0.4,0.5l0.3,0.2c0.6,0.4,1.2,1,0.6,1.9l-2.7,3.6l-5.9-4.5l2.7-3.6
	c0.7-0.9,1.4-0.4,2,0l0.3,0.2l0.4-0.5c-0.7-0.5-1.8-1.3-2.7-1.9c-0.8-0.6-1.8-1.4-2.4-1.9l-0.4,0.5l0.2,0.2c0.6,0.4,1.1,1,0.5,1.8
	l-6.5,8.5c-0.6,0.8-1.3,0.5-1.9,0l-0.2-0.2l-0.4,0.5c0.7,0.5,1.7,1.2,2.5,1.8c0.9,0.7,1.9,1.5,2.6,2.1l0.4-0.5l-0.3-0.2
	c-0.6-0.4-1.2-1-0.6-1.9l3.1-4l5.9,4.5l-3.1,4c-0.7,0.9-1.4,0.4-2,0l-0.3-0.2l-0.4,0.5c0.7,0.5,1.8,1.3,2.7,1.9
	c0.8,0.6,1.8,1.4,2.4,1.9l0.4-0.5l-0.2-0.2C37.3,126,36.8,125.4,37.4,124.6z M57.8,126.7c-1.6,4.4-5.8,6.2-9.9,4.8
	c-4.1-1.5-6.2-5.3-4.7-9.5c1.4-4,5.6-6,9.6-4.6C56.8,118.9,59.2,122.6,57.8,126.7z M52.4,118.3c-3.4-1.2-5.4,1.4-6.4,4
	c-1.2,3.4-0.8,7.3,2.3,8.4c3.7,1.3,5.6-1.7,6.6-4.5C55.9,123.4,55.6,119.4,52.4,118.3z M72,120.8l-10.5-0.5c-0.6,0-1.1,0-1.2-0.7
	l-0.5,0c0,0.6-0.1,1.2-0.2,1.7c-0.1,0.6-0.2,1.2-0.3,1.7l0.6,0c0.4-1.5,0.5-1.8,2-1.8l3.3,0.2l-0.5,10.9c-0.1,1.6-0.7,1.7-1.8,1.6
	l-0.4,0l0,0.6c0.8,0,2.2,0,3.4,0.1c1.1,0.1,2.5,0.2,3.3,0.2l0-0.6l-0.4,0c-1,0-1.7-0.3-1.6-1.8l0.5-10.8l3.3,0.2
	c1.4,0.1,1.4,1.3,1.4,2l0.6-0.2c0-0.6,0.1-1.1,0.1-1.6c0.1-0.5,0.2-1.1,0.3-1.6l-0.5-0.1C73,120.8,72.5,120.8,72,120.8z M88.3,128.3
	c0,2.4-1,2.8-3.4,3.4c-1.3,0.3-2.4,0.6-2.7-0.7l-1.2-4.6l2.4-0.6c1.4-0.3,1.6,0.4,2,1.6l0.6-0.3c-0.2-0.7-0.4-1.5-0.6-2.2
	c-0.2-0.8-0.4-1.5-0.5-2.3l-0.6,0.1c0.2,1.1,0.1,1.8-1.1,2.1l-2.4,0.6l-1.3-5.2l2.8-0.7c2.1-0.5,2.6,0.4,3,1.7l0.6-0.3
	c-0.3-0.9-0.6-2.2-0.8-3c-1.3,0.3-3.4,0.9-5,1.4c-1.7,0.4-3.7,0.9-4.9,1.2l0.1,0.6l0.3-0.1c0.7-0.2,1.5-0.3,1.8,0.8l2.6,10.4
	c0.3,1-0.5,1.3-1.2,1.5l-0.3,0.1l0.2,0.6c1.1-0.3,3.5-1,5.2-1.4c1.8-0.5,4.1-0.9,5.3-1.3c-0.1-1.1-0.1-2.2-0.1-3.3L88.3,128.3z
	 M101.9,121.4c0.1,0.5,0.2,1,0.2,1.6c-0.1,0.6-0.5,1.4-1.2,1.9c-0.8,0.5-1.6,1-2.3,1.3c-0.6,0.2-1.2,0.3-1.6-0.4l-5.1-9.2
	c-0.5-0.9,0-1.3,0.7-1.6l0.4-0.2l-0.3-0.5c-0.9,0.5-1.8,1.1-2.7,1.6c-0.9,0.5-1.9,1-2.9,1.5l0.3,0.5l0.3-0.1
	c0.6-0.4,1.4-0.7,1.9,0.3l5.1,9.2c0.6,1.1,0,1.6-0.7,1.9l-0.2,0.1l0.3,0.5c1.6-0.9,3.1-1.8,4.7-2.7c1.6-0.9,3.2-1.7,4.8-2.5
	c-0.4-1.1-0.7-2.3-1-3.4L101.9,121.4z M100.2,112.8c-1-1.2-1-2.5,0.3-3.6c1.1-0.9,2.5-0.5,3.5,0.4l0.4-0.4c-0.7-0.7-1.4-1.4-2-2.1
	c-0.5,0.3-2,1.3-2.4,1.7c-2,1.7-2.4,4.1-0.7,6.1c3.2,3.8,7-1,9.4,1.8c0.9,1.1,0.6,2.5-0.4,3.4c-1.5,1.3-3.2,0.7-4.5-0.4l-0.4,0.5
	c0.7,0.7,1.5,1.4,2.3,2.1c1.1-0.3,2.2-0.7,3.1-1.4c2-1.7,2.8-4.3,1-6.5C106.5,110.6,102.4,115.4,100.2,112.8z M111.8,72.7
	c0.1,0.3,0.3,0.9,0.1,1.2c-0.1,0.1-0.2,0.2-0.3,0.2c-0.2,0.1-0.5,0.3-0.8,0.4c-0.4,0.1-0.9-0.1-1.2-0.4c-0.1,0.2,0.1,0.4,0,0.6
	c-0.1,0.2-0.3,0.2-0.5,0.3c-0.4,0.1-0.8,0.1-1.2,0.1c-0.4-0.1-0.7-0.2-0.9-0.6c-0.3-0.4-0.7-0.7-1.1-0.9c-0.3-0.1-0.8-0.1-1.2-0.3
	c-0.8,0.2-1.5,0.5-2.3,0.8c-0.6,0.2-1.2,0.5-2,0.8c-1.5,0.5-3,1-4.5,1.5c-1.7,0.4-3.5,0.9-5.3,1.3c-1,0.2-2,0.4-3.1,0.6
	c-0.7,0.1-1.6,0.2-2.4,0.3c0,0-0.1,0-0.3-0.1c-0.2-0.1-0.4-1.1-0.4-1.4c-0.1-0.6,0.1-1.1,0.2-1.6c0.2-0.6,0.3-1.1,0.3-1.7
	c-0.2,0.3-0.5,0.7-0.6,1c-0.2,0.6-0.5,1.3-0.6,1.9c-0.1,0.6,0.2,1.2,0.3,1.9c0.1,1,0.2,2,0.3,2.9c0.2,1,0.4,2,0.6,3.1
	c0.4,1.5,1,3.1,1.5,4.8c0.4,1.1,0.8,2.1,1.2,3.2c0,0.1-0.1,0.3-0.2,0.5c0,0,0,0.1,0,0.1c0.5,0,1-0.3,1.6-0.4
	c1.1-0.1,2.2,0.1,3.3,0.3c0.5,0.1,1.1,0.2,1.5,0.5c0.4,0.4,1,1.7,0.2,2c-0.3,0.1-0.7,0.1-1,0c-0.3,0-0.5,0-0.6-0.3
	c-0.1-0.2-0.1-0.5-0.2-0.7c-0.3,0.1-0.2,0.4-0.2,0.6c0,0.2-0.1,0.5-0.3,0.6c-0.3,0.2-0.7,0.3-1,0.3c-0.4,0-0.8,0.1-1.1-0.1
	c-0.2-0.1-0.3-0.2-0.4-0.4c0,0-0.3-0.5-0.3-0.4c0,0.1,0,0.3,0.1,0.5c-0.1,0.4-0.3,0.7-0.7,0.7c-0.3,0.1-0.7,0.1-1.1,0.1
	c-0.3,0-0.7,0-1-0.1c-0.6-0.2-1-1-1.4-1.4c-0.5-0.7-1.1-1.3-1.6-2c-0.4-0.5-0.6-0.9-0.8-1.4c-0.6-1.5-1.6-2.8-2.6-4.1
	c-0.5-0.7-1.1-1.3-1.7-2c-0.5-0.6-1.3-0.9-1.7-1.6c-0.3-0.5-0.5-1-0.8-1.4c-0.4-0.6-0.9-1.2-1.5-1.8c-0.3-0.3-0.6-0.7-1-0.9
	c-0.5-0.2-1-0.3-1.5-0.5c-0.9-0.3-1.7-0.6-2.5-0.9c-1.9-0.7-3.8-1.4-5.6-2.5c-0.4-0.1-0.8-0.2-1.3-0.2c-0.4-0.1-0.8-0.1-1.2-0.2
	c-0.3,0.5-0.9,1.4-1,1.7c-0.3,0.9-0.9,1.8-1.5,2.5c-0.4,0.5-0.9,0.9-1.4,1.3c-1.9,1.4-4.1,1.8-6.4,2.4c0,0.1-0.1,0.1-0.2,0.3
	c0,0.1-0.1,0.3,0,0.4c1.1,1.7,2.1,3.4,3.3,5.1c0.7,0.1,1.4,0.1,2.1,0.1c0.7-0.1,1.5-0.3,2.2-0.2c0.6,0.1,1.2,0.3,1.4,0.9
	c0.2,0.6,0.2,1.2-0.4,1.6c-0.1,0-0.2,0.1-0.3,0.1c-0.2-0.1-0.4-0.1-0.7-0.1c-0.1-0.1-0.1-0.2-0.2-0.2c0,0-0.1,0.1-0.2,0.1
	c0,0.1-0.1,0.3-0.2,0.5c-0.1,0.1-0.2,0.1-0.4,0.2c-0.2,0-0.5,0.1-0.8,0.2c-0.8,0-1.6,0-2.4,0c-0.7,0-1.5,0.1-2.2-0.1
	c-0.5-0.1-1.1-0.3-1.5-0.8c-0.4-0.5-0.6-1.3-0.9-1.9c-0.3-0.5-0.6-0.9-0.9-1.5c-0.4-0.7-1.2-1.4-1.7-2.1c-0.5-0.5-1.3-1.3-1.3-2
	c0-0.8,0.6-1.6,1-2.2c0.1-0.6,0.2-1.2,0.4-1.8c0-0.6-0.1-1.2-0.2-1.9c0.1-0.2,0.1-0.4,0.2-0.7c0.5-0.8,1-1.5,1.6-2.3
	c0.5-0.6,1-1.2,1.5-1.9c0.2-0.2,0.4-0.3,0.7-0.5c0.1-0.1,0.3-0.1,0.4-0.2c0.2,0,0.4,0,0.6,0c-0.1,0-0.3-0.1-0.5-0.2
	c-0.3,0-0.6,0.1-0.9,0.1c-0.2,0.1-0.5,0.3-0.7,0.4c-0.2,0.3-0.5,0.5-0.7,0.7c-1,1.5-2.1,3-3.1,4.5c-0.5,0.5-0.9,1-1.4,1.5
	c-0.4,0.3-0.8,0.6-1.3,0.9c-0.5,0.3-1,0.5-1.5,0.9c-0.3,0.1-0.6,0.3-1,0.4c-1,0.2-1.9,0.4-3,0.6c-0.4,0-0.9,0-1.4,0.1
	c-0.6-0.1-1.3-0.2-2-0.2c-0.8-0.1-1.5-0.3-2.4-0.4c-0.1,0-0.2,0.1-0.3,0.1c-0.1,0.1-0.2,0.3-0.3,0.5c-0.1,0.1,0,0.6,0,0.8
	c0,0.3,0,0.6,0.1,0.9c0,0.4,0,0.9,0.2,1.3c0.6,1.2,2.4,0.6,3.5,0.6c0.4,0,0.8,0.1,1.2,0.2c0.5,0.3,0.8,0.7,0.8,1.3
	c-0.1,0.6-0.2,1.4-0.9,1.6c-0.3,0.1-0.6,0.1-0.9,0.1c-0.1,0-0.3-0.1-0.4-0.2c-0.1-0.1-0.1-0.3-0.3-0.3c-0.3,1-1.2,0.8-2,0.8
	c-1,0.1-1.9,0.1-2.9-0.1c-0.3-0.1-0.4-0.1-0.6-0.3c-0.5-0.6-0.6-1.3-0.8-2.1c-0.2-0.8-0.4-1.6-0.6-2.4c-0.2-0.7-0.4-1.3-0.5-2
	c-0.1-0.5-0.5-1.2-0.3-1.7c0.1-0.5,0.2-0.7,0.6-0.9c0.6-0.2,1.2-0.4,1.7-0.7c1.2-0.5,2.5-1.1,3.5-1.9c0.5-0.4,0.9-0.8,1.4-1.1
	c0.5-0.5,1-0.9,1.3-1.6c0.3-0.6,0.7-1.2,0.8-2c0.1-0.9,0.1-1.8,0-2.7c0-0.5,0-0.9,0.1-1.5c0.1-0.4,0.3-1,0.3-1.4c0,0,0-0.1-0.1-0.2
	c-0.6-0.2-1.1-0.5-1.7-0.9c-0.7-0.4-1.4-1.1-1.8-1.7c-0.3-0.4-0.4-1-0.5-1.5c-0.1-0.9,0.1-2,0.5-2.8c0.5-1,1.3-1.8,2.1-2.5
	c0.4-0.4,0.9-0.9,1.4-1.3c1.8-1.3,3.7-2.7,5.6-4c3.8-2.6,7.6-5.2,11.4-7.8c0.4-0.4,0.9-0.9,1.4-1.4c0.2-0.3,0.4-0.6,0.6-0.9
	c0-0.1,0-0.2,0.1-0.3c0-0.1,0-0.2,0.1-0.3c0-0.2,0.1-0.4,0.2-0.6c0.1-0.3,0-0.5-0.2-0.8c-0.3,0-0.5,0.2-0.6,0.4
	c-0.2,0.2-0.4,0.4-0.6,0.6c-0.4,0.3-0.7,0.7-1.1,1c-0.3,0.2-0.5,0.5-0.8,0.7c-0.3,0.2-0.6,0.4-0.9,0.6c-0.4,0.2-0.7,0.4-1.1,0.7
	c-0.3,0.2-0.6,0.3-0.9,0.4c-0.2,0.1-0.4,0.1-0.5,0.1c-0.4,0-0.4,0-1.1,0c-0.2,0-0.5,0.1-0.6-0.2c0-0.1,0-0.2,0-0.2
	c0-0.2,0-0.3,0.1-0.5c0.1-0.1,0.2-0.2,0.3-0.4c0.1-0.1,0.1-0.2,0.2-0.2c0.1-0.1,0.2-0.2,0.4-0.3c0.2-0.1,0.3-0.2,0.5-0.3
	c0.4-0.2,0.7-0.5,1.1-0.6c0.4-0.2,0.7-0.3,1.1-0.4c0.4-0.2,0.9-0.3,1.4-0.4c0.2-0.1,0.4-0.1,0.6-0.2c0,0,0.2-0.1,0.2-0.1
	c0,0-0.3,0.1-0.3,0.1c-0.1,0-0.2,0.1-0.4,0.1c-0.8,0.2-1.7,0.3-2.4,0.6c-0.2,0.1-0.5,0.2-0.7,0.3c-0.4,0.2-0.8,0.4-1.1,0.6
	c-0.2,0.2-0.5,0.4-0.7,0.6c-0.1,0.1-0.2,0.2-0.3,0.2c-0.1,0.1-0.2,0.1-0.4,0.1c-0.1,0-0.3,0.1-0.4,0.1c-0.4,0.1-0.6,0.3-1.1,0.2
	c-0.1,0-0.3,0-0.4-0.1c-0.1-0.1,0.1-0.5,0.1-0.6c0.2-0.3,0.4-0.5,0.7-0.8c0.2-0.2,0.5-0.3,0.8-0.5c0-0.1,0-0.1,0.1-0.2
	c-0.4,0.3-0.9,0.5-1.3,0.7c-0.4,0.2-0.8,0.6-1.2,0.7c-0.1,0-0.2,0.1-0.3,0.1c-0.1,0-0.3,0-0.4,0c-0.1,0-0.3,0-0.4-0.1
	c-0.1-0.1,0-0.3,0-0.5c0-0.2,0.2-0.4,0.4-0.5c0,0,0-0.1-0.1-0.2c0,0-0.2-0.1-0.2-0.1c-0.1,0-0.2-0.1-0.2-0.1
	c-0.2-0.1-0.4-0.2-0.5-0.3c-0.2-0.1-0.4-0.2-0.5-0.3c-0.2-0.1-0.3-0.2-0.4-0.3c-0.1-0.1-0.2-0.2-0.3-0.3c-0.1-0.1-0.1-0.3-0.1-0.4
	c0-0.2,0.3-0.1,0.4-0.1c0.2,0,0.5,0.1,0.7,0.1c1.4,0.1,2.8,0.2,4.2,0.3c1,0,2.1-0.1,3.2-0.2c-0.1,0-0.3-0.1-0.4-0.1
	c-0.6-0.1-1.2,0.1-1.8-0.1c-0.1,0-0.2-0.1-0.2-0.2c-0.1-0.1-0.2-0.2-0.2-0.4c0-0.1,0-0.4,0.1-0.4c0.1-0.1,0.1-0.1,0.3-0.1
	c0.4,0,0.3-0.1,1.6,0c0.7-0.1,0.8-0.2,2.2-0.3c0.6,0,1.8,0.3,2.2,0.3c-0.3-0.1-0.8-0.2-1.2-0.4c-0.1-0.1-0.1-0.4,0-0.5
	c0.5-0.1,1-0.2,1.6-0.3c0.6,0,1.1,0.1,1.7,0.2c0.2,0.1,0.5,0.2,0.7,0.4c0.2,0.2,0.3,0.3,0.4,0.5c0.1,0.2,0.3,0.4,0.3,0.6
	c0.1,0.5,0.2,1.1,0.2,1.7c0,0.3-0.1,0.6-0.2,0.9c-0.1,0.3-0.2,0.6-0.3,0.8c-0.2,0.4-0.5,0.7-0.8,1c-0.3,0.3-0.6,0.7-0.9,1
	c-0.4,0.4-0.9,0.8-1.4,1.3c-4.8,3.3-9.6,6.6-14.5,9.9c-0.8,0.5-1.5,1.2-2.3,1.8c-0.7,0.6-1.1,1.2-1.7,1.9c-0.2,0.3-0.3,0.6-0.5,1
	c-0.3,0.8-0.5,1.5-0.3,2.3c0.1,0.5,0.6,1,1,1.2c0.4,0.3,1,0.6,1.6,0.6c0.9,0.1,1.9-0.4,2.8-0.8c0.9-0.5,1.7-1.1,2.6-1.5
	c0.8-0.3,1.6-0.6,2.4-0.8c1-0.2,1.9-0.4,2.8-0.5c1-0.1,2-0.2,3.1-0.4c1.1,0,2.3-0.1,3.4-0.2c2-0.1,4-0.2,6-0.4
	c1.9-0.1,3.9-0.4,5.7-1c0.4-0.1,0.8-0.2,1.2-0.4c0.4-0.2,0.7-0.6,1-0.8c0.5-0.2,0.9-0.4,1.3-0.8c0.3-0.2,0.5-0.4,0.8-0.6
	c-0.4-0.1-0.8-0.1-1-0.3c-0.4-0.2,0-1.2,0-1.2l0.6-0.9c-0.5-0.1-0.9-0.6-0.6-1.2v0.1c0,0,0,0,0-0.1c0-0.1,0.1-0.2,0.1-0.3
	c0.2-0.4,0.5-0.9,0.7-1.3c0-0.1-0.1-0.2-0.1-0.3c-0.4-0.3-0.7-0.5-0.8-0.9c0,0,0,0,0,0c0,0,0,0,0,0c0-0.2,0-0.5,0.1-0.8
	c0.3-0.6,0.7-1.5,1.2-1.9c-0.4,0-0.9-0.1-1-0.4c-0.3-0.5,0.5-1.5,0.7-2c0.5-0.9,1-0.7,1.9-1.1l0-0.1c-0.1,0-0.3-0.1-0.4-0.1
	c-0.5-0.2-1-0.2-1.5-0.4c-0.3-0.6,0.4-1.4,0.8-1.8c0.2-0.2,0.5-0.5,0.8-0.6c0.3-0.1,0.8,0.1,0.9-0.2c-0.2-0.2-0.4-0.3-0.6-0.5
	c-0.4-0.4-0.7-0.8-1.1-1.2c0-0.2,0.1-0.3,0-0.5c0.1-0.1,0.2-0.3,0.4-0.4c0.4-0.2,0.8-0.5,1.2-0.7c0.3,0,0.6,0,0.9-0.1
	c-0.2-0.9-0.9-2.1,0.5-2.2c0.1,0,0.3,0,0.5,0.1c0.2,0,0.3,0.1,0.5,0.2c0,0,0.1,0,0.1,0.1c0.3,0.2,0.6,0.3,0.8,0.6
	c-0.1-0.2-0.2-0.5-0.3-0.7c0.1-0.3,0.1-0.6,0.2-0.9c0.2,0,1.1-0.4,1.3-0.5c0.3,0.1,0.7,0.3,1.1,0.5c0.1,0.2,0.3,0.3,0.4,0.5
	c0.2-0.5,0.3-1,0.5-1.6c0,0,0.1-0.1,0.2-0.1c0.2,0,0.4,0.1,0.6,0c0.1,0.3,0.3,0.5,0.4,0.8c-0.1,0.5-0.2,1.1-0.4,1.6l0.2,0.1
	c0.2-0.5,0.5-1,0.7-1.5c0.2-0.3,0.5-0.7,0.7-1.1c0.1-0.1,0.2-0.1,0.3-0.2c0.1,0,0.3,0.1,0.5,0c0.1,0.1,0.2,0.2,0.3,0.4
	c0,0.2,0.1,0.3,0.1,0.5c-0.1,0.2-0.1,0.5-0.2,0.8c-0.2,0.4-0.5,0.9-0.7,1.3c0.1,0,0.1-0.1,0.2-0.1c0,0,0-0.1,0.1-0.1
	c0.6-0.7,1.2-1.4,1.9-2.2c0.1,0,0.3,0.1,0.5,0.2c0,0.1,0,0.1,0,0.3c-0.1,0.4-0.1,0.7-0.3,1.2c-0.1,0.1-0.2,0.3-0.3,0.4
	c0,0.1,0,0.1,0,0.2c0,0,0,0,0,0c0.1-0.1,0.2-0.3,0.4-0.5c0.2-0.1,0.5-0.3,0.8-0.5c0.1-0.1,0.4-0.1,0.6-0.2c0.2,0,0.4,0.1,0.7,0.1
	c0,0,0,0.1,0,0.1c0,0.2,0,0.5-0.2,0.7c-0.2,0.2-0.4,0.4-0.6,0.6c0,0,0,0.1,0,0.1c0.3-0.2,0.6-0.3,0.9-0.5c0.3,0,0.5,0.1,0.9,0.1
	c0.2,0,0.4,0.1,0.6,0.3c0,0.2,0,0.4-0.1,0.8c-0.1,0.1-0.2,0.2-0.3,0.3c1-0.1,2.7,0.1,1.4,1.3c0.5,0,1.1,0.1,1.6,0.4
	c-0.2,0.2-0.4,0.3-0.7,0.4c0.5,0.5,0.8,1,0.9,1.4c0.1,0.1,0.2,0.2,0.3,0.3c0.5,0.4,0.9,0.8,1.4,1.3c1.8,0.6,5.3,1.6,3.2,3.3
	c0.7,0.6,0.6,1.6,0,2.2c-0.1,0.1-0.2,0.1-0.4,0.1c0.1,0.5-0.2,1-0.6,1.3c0.4,0.7,0.2,2.2-0.6,2.5c0.3-0.7-0.9,0.1-0.9-0.3
	c0.1,0,0.1-0.1,0.2-0.1c-0.3,0-0.6,0.1-0.9-0.1c0.1-0.1,0.2-0.2,0.2-0.3c-0.3-0.1-0.6-0.3-0.6-0.6c-0.1,0-0.2,0-0.3,0
	c0.4,0.7-0.7,1-1.3,1.5c0,0,0,0.1,0,0.1c0,0.3,0.7,0.8,0.8,1.1c0.2,0.4,0.4,0.9,0.6,1.4c0.1,0.2,0.3,0.9,0.2,1.1
	c-0.1,0.2-0.7,0-0.9,0c0.1,0.6,0.4,1.2,0.5,1.9c0,0.3,0.2,0.8,0.1,1.1c-0.3,0.1-0.6,0-0.9-0.1c0,0.4,0.2,0.9,0.3,1.3
	c0.1,0.4,0.2,0.8,0.2,1.2c0,0.2,0.1,0.8,0,1c-0.2,0.2-0.7,0-1-0.1c0.2,1,0.2,2.8-0.4,3.4c-0.5,0.5-1,0.3-1.4,0.6
	c0,0-0.1,0.2-0.1,0.2c-0.2,0.9-0.2,1.6-0.5,2.1c-0.2,0.3-0.5,0.5-0.9,0.6c0.2,0.1,0.5,0.2,0.7,0.3c0.4,0.2,0.8,0.5,1.3,0.8
	c0.3,0.1,0.7,0.2,1.1,0.5c0.6,0.1,1.3,0.2,2,0.4c0.4,0.1,1,0,1.3-0.1c0.5,0,0.9,0,1.4-0.1c3.2-0.2,6.6-0.6,9.8-0.2
	c0.7,0.1,1.5,0.3,2.2,0.4c1.3,0.3,2.7,0.5,4,0.8C111.2,72,111.6,72.2,111.8,72.7C111.8,72.6,111.8,72.6,111.8,72.7z M90.2,42.8
	c-0.3-0.4-1.6-2.5-2.2-1.4C87.7,42.3,90.2,42.9,90.2,42.8z"/>
</svg>
