<?xml version="1.0" encoding="utf-8"?>
<!-- Generator: Adobe Illustrator 23.0.2, SVG Export Plug-In . SVG Version: 6.00 Build 0)  -->
<svg version="1.1" id="Layer_1" xmlns="http://www.w3.org/2000/svg" xmlns:xlink="http://www.w3.org/1999/xlink" x="0px" y="0px"
	 viewBox="0 0 405.4 422.9" style="enable-background:new 0 0 405.4 422.9;" xml:space="preserve">
<style type="text/css">
	.st0{fill:#BEA776;}
	.st1{fill:#020303;}
</style>
<g>
	<path class="st0" d="M171.4,178.8c-19.9,5.9-44.3,15.8-51.2,37.9c-2.9,12,0.9,23.5,10.5,31c10.4,8.3,26.4,11.1,38.2,5.7
		c7.5-3.5,13.3-9.3,15.9-18.4c-7.8,5.5-19.7,5.3-27.1-0.1c-6.3-5-9.7-11.9-9.4-19.8c1.3-15.2,17.4-26.6,30.7-30.4
		c4.3-1.3,9.3-2.3,14.4-2.5c-3.1,14.9-15.9,30.3-29.6,37.7c0,0,10.9,4.5,27.8-1c0,0,2.3,17.5,11.2,33.4
		c8.9-15.9,11.2-33.4,11.2-33.4c17,5.5,27.8,1,27.8,1c-13.8-7.4-26.6-22.8-29.6-37.7c5.1,0.2,10.1,1.3,14.4,2.5
		c13.3,3.8,29.4,15.2,30.7,30.4c0.3,7.9-3.2,14.8-9.5,19.8c-7.4,5.4-19.4,5.6-27.1,0.1c2.5,9.1,8.3,15,15.9,18.4
		c11.8,5.4,27.8,2.6,38.2-5.7c9.6-7.5,13.4-19,10.5-31c-6.9-22.1-31.3-32.1-51.2-37.9h0c31-2.8,60.4-11,83-33.3
		c16.9-17.9,27.7-43.2,17.9-67.8c-6-16.9-23-27.9-40.2-28.9c-41.2-2.3-60.1,38.6-62.3,51.5c0,0,22-26.9,52.8-19.8
		c9.5,2.2,18.7,10.1,21.3,20c4.3,18.3-2.9,35.1-16.4,47.8c-19.5,16.2-43.5,22.5-68.7,24.6c0.6-13.4,3.9-25.7,12.4-35.6
		c6-6.8,14.6-11.5,22.6-9.8c7.4,1.5,10.2,8.6,9.6,13.4c-0.9,7.3-7.6,12.1-7.6,12.1c13.9-1.4,28.1-12.8,31.6-26
		c4.2-16.4-9.7-34.7-32.2-29.5c-32.6,7.5-42.5,45.2-44.3,75.8c-1.1,0.1-2.2,0.1-3.3,0.2c-7.3-35.3,10.4-64,17.7-95.1h0
		c6.3-27.2-7.8-56.6-25.3-78.4c-17.5,21.8-31.6,51.2-25.3,78.4c7.3,31.2,25,59.9,17.7,95.1c-1.1,0-2.2-0.1-3.3-0.2
		c-1.8-30.7-11.6-68.3-44.3-75.8c-22.5-5.2-36.4,13.1-32.2,29.5c3.6,13.2,17.7,24.6,31.6,26c0,0-6.7-4.9-7.6-12.1
		c-0.6-4.8,2.3-11.9,9.6-13.4c8-1.7,16.6,3,22.6,9.8c8.4,10,11.7,22.2,12.4,35.6c-25.2-2.2-49.2-8.4-68.7-24.6
		c-13.4-12.6-20.7-29.5-16.4-47.8c2.6-10,11.8-17.9,21.3-20c30.8-7.1,52.7,19.8,52.7,19.8c-2.2-12.9-21.1-53.7-62.3-51.5
		c-17.3,0.9-34.2,12-40.2,28.9c-9.8,24.7,1,49.9,17.9,67.8C111,167.8,140.4,176,171.4,178.8"/>
	<path class="st1" d="M334,304.5c0,1.9,1.6,4.5,3.8,7.1c2.8-2.1,4.9-4.7,4.9-7.2c0-2.9-1.6-4.6-4.3-4.6S334,301.3,334,304.5
		 M343.4,338.4l-9.5-14.1c-4.4,2.4-6.1,4.6-6.1,9c0,4.4,3.3,7.2,9,7.2C338.8,340.5,341.1,339.7,343.4,338.4 M358.2,339.8l6.6,9.6
		h-14l-2-2.9c-4.4,2.3-9.3,3.8-14.6,3.8c-10.3,0-18.5-6.4-18.5-16.4c0-8.5,4.7-13.2,12.3-17.3c-3.3-4.2-4.8-7.2-4.8-11.9
		c0-9.1,6.3-13.7,15.2-13.7c8.3,0,14.1,5.5,14.1,13.7c0.1,5.7-4.1,10.9-8.6,14.1l8.7,12.7c2.8-2.6,5.3-5.3,7.4-7.7l6.5,7.3
		C364.2,333.9,361.4,336.9,358.2,339.8"/>
	<path class="st1" d="M62.2,302.4h-8.1v13.9h8.1c4.4,0,7.2-2.8,7.2-7.3C69.4,304.9,66.2,302.4,62.2,302.4 M70.2,349.4l-16-27.2v27.2
		H41.5v-57.7h20.7c12.1,0,19.8,7.3,19.8,17.2c0,8.6-5.3,14.3-12.9,16.3l15.3,24.1L70.2,349.4L70.2,349.4z"/>
	<polygon class="st1" points="134.8,349.4 134.8,291.7 147.4,291.7 147.4,338.7 168,338.7 168,349.4 	"/>
	<path class="st1" d="M200.6,310.1c-0.6-2.1-1.3-4.7-1.3-4.7s-0.6,2.5-1.2,4.7l-4.3,14.1h11.1L200.6,310.1z M212.4,349.4l-4.4-14.5
		h-17.5l-4.5,14.5h-13.3l20.6-57.7h12.2l20.9,57.7H212.4z"/>
	<rect x="233.4" y="291.7" class="st1" width="12.6" height="57.7"/>
	<path class="st1" d="M272.9,350.3c-8,0-13.8-2.9-19.4-7.2l6.6-8.8c3.4,2.7,8.3,5,13,5c5.8,0,7.3-2,7.3-5.5
		c0-5.8-10.5-7.7-15.3-10.4c-5.8-3.2-10.3-6.8-10.3-16c0-11.8,10.3-16.7,20.5-16.7c5.5,0,12,1.5,16.7,5l-5.7,9.4
		c-2.5-1.9-6.8-3.3-11-3.3c-5.8,0-7.9,3.3-7.9,5.6c0,5.2,7.3,6.8,14.1,9.7c5.6,2.5,11.6,6.4,11.6,15.9
		C293.1,343.9,285.3,350.3,272.9,350.3"/>
	<path class="st1" d="M29.5,422.9C11.9,422.9,0,411.3,0,392.8c0-17.3,13-29.5,29.2-29.5c8.4,0,14.8,2.4,20.8,8.5l-7.1,8.3
		c-3.9-3.9-8.3-5.8-13.7-5.8c-9.9,0-16.2,7.8-16.2,18.4c0,11.8,5.8,19,16.4,19c7.3,0,10.8-3.1,14.5-6.6l7.3,8.3
		C45.9,419.3,39.5,422.9,29.5,422.9"/>
	<path class="st1" d="M137.9,382.7c-0.6-2-1.3-4.7-1.3-4.7s-0.6,2.5-1.2,4.7l-4.3,14.1h11.1L137.9,382.7z M149.8,421.9l-4.4-14.5
		h-17.5l-4.5,14.5H110l20.6-57.7h12.2l20.9,57.7L149.8,421.9L149.8,421.9z"/>
	<polygon class="st1" points="162.1,364.3 162.1,374.9 173.5,374.9 173.5,421.9 186.2,421.9 186.2,374.9 197.3,374.9 197.3,364.3 	
		"/>
	<path class="st1" d="M272.8,382.7c-0.6-2-1.3-4.7-1.3-4.7s-0.6,2.5-1.2,4.7l-4.3,14.1h11.1L272.8,382.7z M284.7,421.9l-4.4-14.5
		h-17.5l-4.5,14.5h-13.4l20.6-57.7h12.2l20.9,57.7L284.7,421.9L284.7,421.9z"/>
	<path class="st1" d="M325.2,422.9c-13.3,0-24.6-8.5-24.6-24.3v-34.3h12.7v34.3c0,7.8,5,13.4,11.9,13.4c7.1,0,12.7-5.6,12.7-13.4
		v-34.3h12.6v34.3C350.5,414.3,338.6,422.9,325.2,422.9"/>
	<polygon class="st1" points="387.8,364.2 379.5,379.3 370.8,364.2 356.8,364.2 372.4,390.5 353.9,421.9 368,421.9 379.5,401.5 
		391.2,421.9 405.4,421.9 386.5,390.5 402,364.2 	"/>
	<polygon class="st1" points="203.8,364.2 203.8,421.9 238.5,421.9 238.5,411.2 216.4,411.2 216.4,398.4 237.3,398.4 237.3,387.7 
		216.4,387.7 216.4,374.9 237.3,374.9 237.3,364.2 	"/>
	<polygon class="st1" points="103.3,338.7 103.3,325.9 124.3,325.9 124.3,315.2 103.3,315.2 103.3,302.4 124.3,302.4 124.3,291.7 
		90.7,291.7 90.7,349.4 125.4,349.4 125.4,338.7 	"/>
	<polygon class="st1" points="90.8,364.3 90.8,387.7 70.7,387.7 70.7,364.3 58.1,364.3 58.1,421.9 70.7,421.9 70.7,398.9 
		70.7,398.4 90.8,398.4 90.8,398.9 90.8,421.9 103.4,421.9 103.4,364.3 	"/>
</g>
</svg>
